<svg width="32" height="32" viewBox="0 0 32 32" fill="none" xmlns="http://www.w3.org/2000/svg">
<path d="M15.9602 29.2281C13.8258 29.2406 11.7227 28.7281 9.83203 27.7375H9.79453C8.75391 28.0719 7.66953 28.2406 6.57578 28.2344C5.00391 28.2344 3.24453 27.85 2.97578 26.8156C2.90078 26.5875 2.86016 25.9719 3.66641 25.5125C4.34766 25.1219 4.89766 24.5313 5.23828 23.825C3.54453 21.5563 2.62891 18.8031 2.62891 15.975C2.64141 8.63127 8.60078 2.69065 15.9414 2.70002C23.282 2.7094 29.2258 8.6719 29.2164 16.0125C29.2102 23.3188 23.2852 29.2344 15.9789 29.2281H15.9602Z" fill="white"/>
<path d="M15.9593 3.40935C22.8999 3.39373 28.5374 9.00623 28.553 15.9437C28.5687 22.8843 22.9562 28.5218 16.0187 28.5375C13.8812 28.5437 11.778 28.0031 9.90616 26.9687C9.80616 27.0125 9.70304 27.0531 9.59991 27.0843C8.62179 27.3937 7.59991 27.55 6.57491 27.5437C4.31554 27.5437 2.89991 26.7406 4.00929 26.125C4.94679 25.6 5.66554 24.7562 6.04054 23.75C4.29366 21.5343 3.34991 18.7937 3.35929 15.975C3.39054 9.03435 9.01866 3.42185 15.9593 3.40935ZM15.9593 2.06873C8.28429 2.08123 2.06554 8.29997 2.05304 15.975C2.03429 18.7969 2.89054 21.5531 4.50304 23.8656C4.22179 24.3062 3.84054 24.6719 3.39366 24.9375C2.60929 25.3 2.17804 26.1593 2.35929 27.0062C2.81866 28.7687 5.73116 28.9219 6.61241 28.9219C7.68741 28.9187 8.75929 28.7656 9.79054 28.4625C11.7062 29.4218 13.8187 29.9187 15.9593 29.9187C23.6499 29.9187 29.8843 23.6843 29.8843 15.9937C29.8843 8.3031 23.6499 2.06873 15.9593 2.06873Z" fill="#1890FF"/>
<path d="M10.4461 4.71252C4.21484 7.75315 1.62734 15.2688 4.66484 21.5C5.05234 22.2969 5.52734 23.05 6.07422 23.75C5.69297 24.7531 4.97734 25.5938 4.04297 26.125C2.47109 27.0063 5.92109 28.2313 9.59609 27.0813C9.71172 27.0438 9.78672 27.0063 9.90234 26.9657C11.7555 27.9938 13.8367 28.5344 15.9555 28.5375C17.3398 28.5469 18.7117 28.3125 20.0148 27.8469C24.8367 21.4188 23.5367 12.2969 17.1055 7.4719C15.1555 6.0094 12.8648 5.0594 10.4461 4.71252Z" fill="#BAE7FF"/>
<path fill-rule="evenodd" clip-rule="evenodd" d="M8.48047 21.8915H11.3759L12.0441 19.9427H16.3315L16.944 21.8915H19.8952L15.8861 10.2541H12.5452L8.48047 21.8915ZM15.462 17.4927L14.16 13.1495L12.858 17.4927H15.462Z" fill="#1890FF"/>
<circle cx="22.0102" cy="11.3677" r="1.44772" fill="#1890FF"/>
<rect x="20.5625" y="13.595" width="2.67271" height="8.35221" fill="#1890FF"/>
</svg>
