<svg width="185" height="60" viewBox="0 0 185 60" fill="none" xmlns="http://www.w3.org/2000/svg">
<rect x="1" y="1" width="183" height="58" rx="7" fill="#9747FF" fill-opacity="0.3"/>
<rect x="1" y="1" width="183" height="58" rx="7" stroke="#9747FF" stroke-width="2"/>
<path d="M35.514 24.6651L41.7701 20.9816C41.8107 20.9578 41.8444 20.9238 41.8678 20.883C41.8911 20.8421 41.9034 20.7959 41.9034 20.7488C41.9034 20.7018 41.8911 20.6556 41.8678 20.6147C41.8444 20.5739 41.8107 20.5399 41.7701 20.5161L35.4713 16.8281C35.431 16.8046 35.3852 16.7922 35.3386 16.7922C35.292 16.7922 35.2462 16.8046 35.2059 16.8281L28.952 20.5161C28.9115 20.5399 28.8778 20.5739 28.8544 20.6147C28.831 20.6556 28.8187 20.7018 28.8187 20.7488C28.8187 20.7959 28.831 20.8421 28.8544 20.883C28.8778 20.9238 28.9115 20.9578 28.952 20.9816L35.2487 24.6674C35.2889 24.6909 35.3347 24.7033 35.3813 24.7033C35.428 24.7033 35.4737 24.6909 35.514 24.6674V24.6651ZM51.8402 24.6651L58.0964 20.9816C58.137 20.9578 58.1706 20.9238 58.194 20.883C58.2174 20.8421 58.2297 20.7959 58.2297 20.7488C58.2297 20.7018 58.2174 20.6556 58.194 20.6147C58.1706 20.5739 58.137 20.5399 58.0964 20.5161L51.7998 16.8281C51.7592 16.8041 51.713 16.7915 51.666 16.7915C51.6189 16.7915 51.5727 16.8041 51.5322 16.8281L45.2783 20.5161C45.2377 20.5399 45.204 20.5739 45.1807 20.6147C45.1573 20.6556 45.145 20.7018 45.145 20.7488C45.145 20.7959 45.1573 20.8421 45.1807 20.883C45.204 20.9238 45.2377 20.9578 45.2783 20.9816L51.5749 24.6674C51.6154 24.6913 51.6616 24.7039 51.7087 24.7039C51.7557 24.7039 51.802 24.6913 51.8425 24.6674L51.8402 24.6651ZM51.0329 26.0504L51.0104 33.3814C51.0105 33.428 50.9986 33.4738 50.9757 33.5144C50.9529 33.555 50.9199 33.589 50.88 33.6131C50.8397 33.6366 50.7939 33.649 50.7473 33.649C50.7007 33.649 50.6549 33.6366 50.6146 33.6131L44.3158 29.9273C44.2751 29.9038 44.2412 29.87 44.2175 29.8294C44.1939 29.7888 44.1812 29.7427 44.1809 29.6957L44.2033 22.3646C44.2033 22.1555 44.426 22.0273 44.6014 22.1307L50.9002 25.8187C50.941 25.8423 50.9748 25.876 50.9985 25.9166C51.0222 25.9572 51.0348 26.0034 51.0352 26.0504H51.0329ZM35.9345 26.0504L35.957 33.3814C35.957 33.5883 36.1774 33.7165 36.3528 33.6131L42.6517 29.9273C42.6924 29.9038 42.7263 29.87 42.7499 29.8294C42.7736 29.7888 42.7862 29.7427 42.7866 29.6957L42.7641 22.3646C42.7641 22.3172 42.7517 22.2706 42.728 22.2296C42.7043 22.1885 42.6702 22.1544 42.6292 22.1307C42.5892 22.1076 42.5438 22.0955 42.4976 22.0955C42.4514 22.0955 42.4061 22.1076 42.3661 22.1307L36.0672 25.8187C36.0265 25.8423 35.9926 25.876 35.969 25.9166C35.9453 25.9572 35.9326 26.0034 35.9323 26.0504H35.9345ZM50.8822 36.4623C50.9226 36.4861 50.956 36.5199 50.9792 36.5605C51.0025 36.6011 51.0148 36.6471 51.0149 36.6939L51.0374 44.025C51.0374 44.0724 51.025 44.1189 51.0013 44.16C50.9776 44.201 50.9435 44.2351 50.9025 44.2588L44.6059 47.9446C44.5653 47.9685 44.5192 47.9813 44.4721 47.9815C44.425 47.9817 44.3788 47.9694 44.338 47.9458C44.2973 47.9222 44.2635 47.8882 44.2403 47.8473C44.217 47.8064 44.205 47.76 44.2056 47.713L44.1831 40.3819C44.1831 40.3345 44.1955 40.2879 44.2192 40.2469C44.2429 40.2058 44.277 40.1717 44.318 40.148L50.6146 36.4623C50.6552 36.4383 50.7014 36.4257 50.7484 36.4257C50.7955 36.4257 50.8417 36.4383 50.8822 36.4623ZM36.3506 36.4623L42.6494 40.1503C42.6901 40.1738 42.724 40.2075 42.7477 40.2482C42.7713 40.2888 42.784 40.3349 42.7844 40.3819L42.7619 47.713C42.7615 47.76 42.7489 47.8061 42.7252 47.8467C42.7015 47.8874 42.6677 47.9211 42.6269 47.9446C42.5869 47.9677 42.5416 47.9799 42.4954 47.9799C42.4492 47.9799 42.4038 47.9677 42.3638 47.9446L36.0627 44.2588C36.022 44.2353 35.9881 44.2016 35.9645 44.161C35.9408 44.1203 35.9282 44.0742 35.9278 44.0272L35.9503 36.6961C35.9503 36.487 36.1729 36.3588 36.3483 36.4623H36.3506ZM58.9846 31.6386L59.0723 31.6701C59.113 31.6941 59.1466 31.7283 59.1699 31.7693C59.1932 31.8104 59.2053 31.8568 59.205 31.904L59.2253 39.2328C59.2251 39.2796 59.2128 39.3255 59.1896 39.3661C59.1663 39.4068 59.1329 39.4406 59.0926 39.4644L52.796 43.1524C52.7553 43.1765 52.7089 43.1892 52.6616 43.1893C52.6144 43.1894 52.5679 43.1769 52.5271 43.1531C52.4863 43.1292 52.4526 43.0949 52.4295 43.0537C52.4064 43.0125 52.3947 42.9658 52.3957 42.9186L52.3732 35.5875C52.3732 35.4908 52.4249 35.4031 52.5081 35.3536L58.8047 31.6678C58.8453 31.6439 58.8915 31.6313 58.9385 31.6313C58.9856 31.6313 59.0318 31.6439 59.0723 31.6678L58.9846 31.6386ZM28.1605 31.6701L34.4593 35.3581C34.5425 35.4031 34.5943 35.493 34.5943 35.5897L34.5718 42.9208C34.5714 42.9678 34.5588 43.0139 34.5351 43.0546C34.5114 43.0952 34.4776 43.1289 34.4368 43.1524C34.3968 43.1755 34.3515 43.1877 34.3053 43.1877C34.2591 43.1877 34.2137 43.1755 34.1737 43.1524L27.8749 39.4667C27.8346 39.4429 27.8011 39.409 27.7779 39.3684C27.7546 39.3278 27.7423 39.2818 27.7422 39.235L27.7647 31.904C27.7647 31.6971 27.9851 31.5667 28.1605 31.6701ZM43.5197 31.0247L43.6097 31.0562L49.9063 34.7442C49.9463 34.7681 49.9795 34.8021 50.0025 34.8427C50.0256 34.8833 50.0377 34.9291 50.0377 34.9758C50.0377 35.0225 50.0256 35.0684 50.0025 35.109C49.9795 35.1496 49.9463 35.1835 49.9063 35.2074L43.6524 38.891C43.6119 38.9138 43.5662 38.9258 43.5197 38.9258C43.4732 38.9258 43.4275 38.9138 43.387 38.891L37.0882 35.2074C37.0476 35.1836 37.0139 35.1496 36.9906 35.1088C36.9672 35.068 36.9549 35.0217 36.9549 34.9747C36.9549 34.9276 36.9672 34.8814 36.9906 34.8406C37.0139 34.7998 37.0476 34.7658 37.0882 34.7419L43.3421 31.0584C43.3823 31.0349 43.4281 31.0225 43.4747 31.0225C43.5214 31.0225 43.5671 31.0349 43.6074 31.0584L43.5197 31.0247ZM59.0454 22.1307C59.0864 22.1544 59.1205 22.1885 59.1442 22.2296C59.1679 22.2706 59.1803 22.3172 59.1803 22.3646L59.2005 29.6957C59.2002 29.7427 59.1875 29.7888 59.1639 29.8294C59.1402 29.87 59.1063 29.9038 59.0656 29.9273L52.769 33.6131C52.7285 33.6364 52.6826 33.6487 52.6359 33.6486C52.5891 33.6485 52.5432 33.6361 52.5028 33.6126C52.4624 33.5891 52.429 33.5553 52.4058 33.5147C52.3827 33.4742 52.3706 33.4282 52.3709 33.3814L52.3485 26.0504C52.3485 25.9537 52.3979 25.8637 52.4834 25.8165L58.78 22.1307C58.8203 22.1072 58.8661 22.0948 58.9127 22.0948C58.9593 22.0948 59.0051 22.1072 59.0454 22.1307ZM28.1874 22.133L34.4841 25.821C34.5695 25.866 34.619 25.9559 34.619 26.0526L34.5965 33.3837C34.5964 33.4305 34.5841 33.4764 34.5608 33.517C34.5375 33.5577 34.5041 33.5915 34.4638 33.6153C34.4236 33.6388 34.3778 33.6512 34.3311 33.6512C34.2845 33.6512 34.2387 33.6388 34.1985 33.6153L27.9019 29.9295C27.8611 29.906 27.8273 29.8723 27.8036 29.8317C27.7799 29.791 27.7673 29.7449 27.7669 29.6979L27.7894 22.3668C27.7894 22.1577 28.0098 22.0295 28.1874 22.133ZM43.6074 12.0359L49.9063 15.7217C49.9469 15.7455 49.9805 15.7795 50.0039 15.8203C50.0273 15.8611 50.0396 15.9074 50.0396 15.9544C50.0396 16.0015 50.0273 16.0477 50.0039 16.0885C49.9805 16.1294 49.9469 16.1634 49.9063 16.1872L43.6524 19.8707C43.6123 19.8947 43.5664 19.9073 43.5197 19.9073C43.473 19.9073 43.4271 19.8947 43.387 19.8707L37.0882 16.1849C37.0476 16.1611 37.0139 16.1271 36.9906 16.0863C36.9672 16.0455 36.9549 15.9992 36.9549 15.9522C36.9549 15.9051 36.9672 15.8589 36.9906 15.8181C37.0139 15.7772 37.0476 15.7432 37.0882 15.7194L43.3421 12.0359C43.3823 12.0124 43.4281 12 43.4747 12C43.5214 12 43.5671 12.0124 43.6074 12.0359Z" fill="white"/>
<path d="M72.0469 36L76.1172 24.7266H78.0078L82.0781 36H80.2344L79.2188 32.9531H74.9062L73.8828 36H72.0469ZM76.9922 26.7031L75.375 31.5469H78.75L77.125 26.7031H76.9922ZM83.8438 38.8281V27.5156H85.5391V28.8516H85.6641C86.1562 27.9219 87.0859 27.3672 88.2734 27.3672C90.4141 27.3672 91.7891 29.0781 91.7891 31.75V31.7656C91.7891 34.4531 90.4297 36.1406 88.2734 36.1406C87.1094 36.1406 86.1172 35.5703 85.6641 34.6562H85.5391V38.8281H83.8438ZM87.7969 34.6953C89.2109 34.6953 90.0625 33.5859 90.0625 31.7656V31.75C90.0625 29.9219 89.2109 28.8203 87.7969 28.8203C86.3828 28.8203 85.5078 29.9375 85.5078 31.75V31.7656C85.5078 33.5781 86.3828 34.6953 87.7969 34.6953ZM93.8281 38.8281V27.5156H95.5234V28.8516H95.6484C96.1406 27.9219 97.0703 27.3672 98.2578 27.3672C100.398 27.3672 101.773 29.0781 101.773 31.75V31.7656C101.773 34.4531 100.414 36.1406 98.2578 36.1406C97.0938 36.1406 96.1016 35.5703 95.6484 34.6562H95.5234V38.8281H93.8281ZM97.7812 34.6953C99.1953 34.6953 100.047 33.5859 100.047 31.7656V31.75C100.047 29.9219 99.1953 28.8203 97.7812 28.8203C96.3672 28.8203 95.4922 29.9375 95.4922 31.75V31.7656C95.4922 33.5781 96.3672 34.6953 97.7812 34.6953ZM103.891 36V24.1875H105.586V36H103.891ZM108.992 26C108.406 26 107.93 25.5234 107.93 24.9453C107.93 24.3594 108.406 23.8828 108.992 23.8828C109.57 23.8828 110.055 24.3594 110.055 24.9453C110.055 25.5234 109.57 26 108.992 26ZM108.141 36V27.5156H109.828V36H108.141ZM115.867 36.1641C113.391 36.1641 111.875 34.4766 111.875 31.7344V31.7188C111.875 29.0312 113.383 27.3516 115.859 27.3516C117.992 27.3516 119.266 28.5547 119.5 30.2031V30.2422L117.875 30.25L117.867 30.2266C117.68 29.3906 116.992 28.7656 115.867 28.7656C114.453 28.7656 113.602 29.8906 113.602 31.7188V31.7344C113.602 33.6094 114.469 34.75 115.867 34.75C116.93 34.75 117.586 34.2656 117.859 33.3516L117.875 33.3125H119.5L119.484 33.3828C119.18 35.0312 117.969 36.1641 115.867 36.1641ZM123.75 36.1406C122.133 36.1406 120.938 35.1562 120.938 33.6172V33.6016C120.938 32.0859 122.078 31.2031 124.102 31.0781L126.398 30.9453V30.1953C126.398 29.2656 125.812 28.75 124.664 28.75C123.727 28.75 123.109 29.0938 122.906 29.6953L122.898 29.7266H121.266L121.273 29.6719C121.477 28.2812 122.812 27.3516 124.742 27.3516C126.875 27.3516 128.078 28.4141 128.078 30.1953V36H126.398V34.7969H126.266C125.766 35.6562 124.875 36.1406 123.75 36.1406ZM122.625 33.5469C122.625 34.3281 123.289 34.7891 124.203 34.7891C125.469 34.7891 126.398 33.9609 126.398 32.8672V32.1406L124.328 32.2734C123.156 32.3438 122.625 32.7656 122.625 33.5312V33.5469ZM133.672 36.0547C131.805 36.0547 131.039 35.3984 131.039 33.7656V28.8516H129.711V27.5156H131.039V25.375H132.766V27.5156H134.586V28.8516H132.766V33.3594C132.766 34.2734 133.109 34.6484 133.945 34.6484C134.203 34.6484 134.352 34.6406 134.586 34.6172V35.9688C134.312 36.0156 134 36.0547 133.672 36.0547ZM137.445 26C136.859 26 136.383 25.5234 136.383 24.9453C136.383 24.3594 136.859 23.8828 137.445 23.8828C138.023 23.8828 138.508 24.3594 138.508 24.9453C138.508 25.5234 138.023 26 137.445 26ZM136.594 36V27.5156H138.281V36H136.594ZM144.344 36.1641C141.852 36.1641 140.328 34.5 140.328 31.7656V31.75C140.328 29.0234 141.859 27.3516 144.344 27.3516C146.82 27.3516 148.352 29.0156 148.352 31.75V31.7656C148.352 34.5 146.828 36.1641 144.344 36.1641ZM144.344 34.75C145.797 34.75 146.625 33.6406 146.625 31.7656V31.75C146.625 29.8672 145.797 28.7656 144.344 28.7656C142.883 28.7656 142.062 29.8672 142.062 31.75V31.7656C142.062 33.6484 142.883 34.75 144.344 34.75ZM150.375 36V27.5156H152.07V28.8047H152.195C152.609 27.8984 153.422 27.3516 154.656 27.3516C156.555 27.3516 157.602 28.4844 157.602 30.5078V36H155.914V30.9062C155.914 29.5 155.328 28.8047 154.086 28.8047C152.844 28.8047 152.07 29.6562 152.07 31.0234V36H150.375Z" fill="white"/>
</svg>
