<svg width="14" height="16" viewBox="0 0 14 16" fill="none" xmlns="http://www.w3.org/2000/svg">
<path d="M3.45024 5.62894L6.23074 3.99182C6.24878 3.98124 6.26373 3.96612 6.27413 3.94798C6.28452 3.92983 6.28998 3.90929 6.28998 3.88838C6.28998 3.86746 6.28452 3.84692 6.27413 3.82877C6.26373 3.81063 6.24878 3.79551 6.23074 3.78493L3.43125 2.14581C3.41335 2.13536 3.393 2.12985 3.37228 2.12985C3.35156 2.12985 3.33121 2.13536 3.31331 2.14581L0.533805 3.78493C0.515769 3.79551 0.500814 3.81063 0.490422 3.82877C0.48003 3.84692 0.474563 3.86746 0.474563 3.88838C0.474563 3.90929 0.48003 3.92983 0.490422 3.94798C0.500814 3.96612 0.515769 3.98124 0.533805 3.99182L3.3323 5.62994C3.3502 5.64039 3.37055 5.6459 3.39127 5.6459C3.41199 5.6459 3.43234 5.64039 3.45024 5.62994V5.62894ZM10.7063 5.62894L13.4868 3.99182C13.5049 3.98124 13.5198 3.96612 13.5302 3.94798C13.5406 3.92983 13.5461 3.90929 13.5461 3.88838C13.5461 3.86746 13.5406 3.84692 13.5302 3.82877C13.5198 3.81063 13.5049 3.79551 13.4868 3.78493L10.6883 2.14581C10.6703 2.13517 10.6498 2.12956 10.6289 2.12956C10.608 2.12956 10.5874 2.13517 10.5694 2.14581L7.7899 3.78493C7.77187 3.79551 7.75691 3.81063 7.74652 3.82877C7.73613 3.84692 7.73066 3.86746 7.73066 3.88838C7.73066 3.90929 7.73613 3.92983 7.74652 3.94798C7.75691 3.96612 7.77187 3.98124 7.7899 3.99182L10.5884 5.62994C10.6064 5.64058 10.6269 5.64619 10.6479 5.64619C10.6688 5.64619 10.6893 5.64058 10.7073 5.62994L10.7063 5.62894ZM10.3475 6.24461L10.3375 9.50286C10.3376 9.52356 10.3323 9.54392 10.3221 9.56196C10.3119 9.58 10.2973 9.59511 10.2796 9.6058C10.2617 9.61625 10.2413 9.62176 10.2206 9.62176C10.1999 9.62176 10.1795 9.61625 10.1616 9.6058L7.36213 7.96768C7.34404 7.95723 7.32898 7.94224 7.31846 7.92418C7.30795 7.90613 7.30233 7.88563 7.30217 7.86474L7.31216 4.60649C7.31216 4.51354 7.41111 4.45657 7.48907 4.50254L10.2886 6.14166C10.3067 6.15211 10.3217 6.16711 10.3322 6.18516C10.3427 6.20322 10.3484 6.22371 10.3485 6.24461H10.3475ZM3.63714 6.24461L3.64713 9.50286C3.64713 9.59481 3.74508 9.65178 3.82304 9.6058L6.62253 7.96768C6.64063 7.95723 6.65568 7.94224 6.6662 7.92418C6.67672 7.90613 6.68234 7.88563 6.6825 7.86474L6.67251 4.60649C6.67252 4.58542 6.66698 4.56472 6.65646 4.54648C6.64593 4.52823 6.63078 4.51308 6.61254 4.50254C6.59476 4.49228 6.5746 4.48688 6.55407 4.48688C6.53354 4.48688 6.51338 4.49228 6.4956 4.50254L3.69611 6.14166C3.67801 6.15211 3.66295 6.16711 3.65243 6.18516C3.64192 6.20322 3.6363 6.22371 3.63614 6.24461H3.63714ZM10.2806 10.8721C10.2985 10.8827 10.3133 10.8977 10.3237 10.9158C10.334 10.9338 10.3395 10.9543 10.3395 10.9751L10.3495 14.2333C10.3495 14.2544 10.344 14.2751 10.3335 14.2933C10.323 14.3116 10.3078 14.3267 10.2896 14.3373L7.49107 15.9754C7.47305 15.986 7.45253 15.9917 7.43161 15.9918C7.4107 15.9919 7.39013 15.9864 7.37202 15.9759C7.35391 15.9654 7.33892 15.9503 7.32858 15.9321C7.31823 15.914 7.31291 15.8934 7.31316 15.8724L7.30317 12.6142C7.30315 12.5931 7.30869 12.5724 7.31922 12.5542C7.32974 12.5359 7.34489 12.5208 7.36313 12.5102L10.1616 10.8721C10.1796 10.8615 10.2002 10.8559 10.2211 10.8559C10.242 10.8559 10.2626 10.8615 10.2806 10.8721ZM3.82204 10.8721L6.62153 12.5112C6.63963 12.5217 6.65468 12.5367 6.6652 12.5547C6.67572 12.5728 6.68134 12.5933 6.6815 12.6142L6.67151 15.8724C6.67134 15.8933 6.66573 15.9138 6.65521 15.9319C6.64469 15.9499 6.62964 15.9649 6.61154 15.9754C6.59376 15.9856 6.5736 15.991 6.55307 15.991C6.53254 15.991 6.51238 15.9856 6.4946 15.9754L3.69411 14.3373C3.67601 14.3268 3.66095 14.3118 3.65044 14.2938C3.63992 14.2757 3.6343 14.2552 3.63414 14.2343L3.64413 10.9761C3.64413 10.8831 3.74308 10.8261 3.82104 10.8721H3.82204ZM13.8816 8.72827L13.9206 8.74227C13.9387 8.75292 13.9536 8.76813 13.964 8.78637C13.9743 8.80461 13.9797 8.82524 13.9796 8.84621L13.9886 12.1035C13.9885 12.1243 13.983 12.1447 13.9727 12.1627C13.9624 12.1808 13.9475 12.1958 13.9296 12.2064L11.1311 13.8455C11.113 13.8562 11.0924 13.8619 11.0714 13.8619C11.0504 13.862 11.0298 13.8564 11.0116 13.8458C10.9935 13.8352 10.9785 13.82 10.9682 13.8016C10.958 13.7833 10.9528 13.7626 10.9532 13.7416L10.9432 10.4833C10.9432 10.4404 10.9662 10.4014 11.0032 10.3794L13.8017 8.74127C13.8197 8.73063 13.8402 8.72502 13.8611 8.72502C13.8821 8.72502 13.9026 8.73063 13.9206 8.74127L13.8816 8.72827ZM0.181994 8.74227L2.98149 10.3814C3.01847 10.4014 3.04146 10.4414 3.04146 10.4843L3.03146 13.7426C3.0313 13.7635 3.02568 13.784 3.01516 13.802C3.00465 13.8201 2.98959 13.8351 2.97149 13.8455C2.95372 13.8558 2.93355 13.8612 2.91303 13.8612C2.8925 13.8612 2.87233 13.8558 2.85456 13.8455L0.055062 12.2074C0.0371503 12.1968 0.0222961 12.1818 0.0119578 12.1637C0.00161954 12.1457 -0.0038474 12.1253 -0.00390625 12.1045L0.00608832 8.84621C0.00608832 8.75426 0.104036 8.69629 0.181994 8.74227ZM7.00832 8.45542L7.0483 8.46941L9.8468 10.1085C9.8646 10.1192 9.87934 10.1343 9.88958 10.1523C9.89982 10.1703 9.9052 10.1907 9.9052 10.2115C9.9052 10.2322 9.89982 10.2526 9.88958 10.2707C9.87934 10.2887 9.8646 10.3038 9.8468 10.3144L7.06729 11.9515C7.0493 11.9617 7.02899 11.967 7.00832 11.967C6.98766 11.967 6.96735 11.9617 6.94936 11.9515L4.14986 10.3144C4.13183 10.3038 4.11687 10.2887 4.10648 10.2706C4.09609 10.2524 4.09062 10.2319 4.09062 10.211C4.09062 10.1901 4.09609 10.1695 4.10648 10.1514C4.11687 10.1332 4.13183 10.1181 4.14986 10.1075L6.92937 8.47041C6.94726 8.45996 6.96761 8.45446 6.98834 8.45446C7.00906 8.45446 7.02941 8.45996 7.0473 8.47041L7.00832 8.45542ZM13.9086 4.50254C13.9269 4.51308 13.942 4.52823 13.9525 4.54648C13.9631 4.56472 13.9686 4.58542 13.9686 4.60649L13.9776 7.86474C13.9774 7.88563 13.9718 7.90613 13.9613 7.92418C13.9508 7.94224 13.9357 7.95723 13.9176 7.96768L11.1191 9.6058C11.1011 9.61619 11.0807 9.62164 11.0599 9.6216C11.0392 9.62157 11.0188 9.61605 11.0008 9.6056C10.9829 9.59515 10.968 9.58015 10.9577 9.56211C10.9474 9.54407 10.9421 9.52363 10.9422 9.50286L10.9322 6.24461C10.9322 6.20163 10.9542 6.16165 10.9922 6.14066L13.7907 4.50254C13.8086 4.49209 13.8289 4.48659 13.8496 4.48659C13.8704 4.48659 13.8907 4.49209 13.9086 4.50254ZM0.193987 4.50354L2.99248 6.14266C3.03046 6.16265 3.05245 6.20263 3.05245 6.24561L3.04246 9.50386C3.0424 9.52466 3.03693 9.54508 3.02659 9.56313C3.01625 9.58118 3.0014 9.59623 2.98349 9.6068C2.96559 9.61725 2.94524 9.62276 2.92452 9.62276C2.9038 9.62276 2.88345 9.61725 2.86555 9.6068L0.0670556 7.96868C0.0489579 7.95823 0.0339041 7.94324 0.0233856 7.92518C0.0128671 7.90712 0.00724898 7.88663 0.00708789 7.86574L0.0170825 4.60749C0.0170825 4.51454 0.11503 4.45757 0.193987 4.50354ZM7.0473 0.0159568L9.8468 1.65408C9.86483 1.66466 9.87979 1.67977 9.89018 1.69792C9.90057 1.71606 9.90604 1.73661 9.90604 1.75752C9.90604 1.77843 9.90057 1.79898 9.89018 1.81712C9.87979 1.83527 9.86483 1.85038 9.8468 1.86097L7.06729 3.49809C7.04947 3.50874 7.02909 3.51436 7.00832 3.51436C6.98756 3.51436 6.96718 3.50874 6.94936 3.49809L4.14986 1.85997C4.13183 1.84938 4.11687 1.83427 4.10648 1.81612C4.09609 1.79798 4.09062 1.77743 4.09062 1.75652C4.09062 1.73561 4.09609 1.71506 4.10648 1.69692C4.11687 1.67877 4.13183 1.66366 4.14986 1.65308L6.92937 0.0159568C6.94726 0.00550684 6.96761 0 6.98834 0C7.00906 0 7.02941 0.00550684 7.0473 0.0159568Z" fill="white"/>
</svg>
