<svg width="185" height="60" viewBox="0 0 185 60" fill="none" xmlns="http://www.w3.org/2000/svg">
<rect x="1" y="1" width="183" height="58" rx="7" fill="#539FEC" fill-opacity="0.3"/>
<rect x="1" y="1" width="183" height="58" rx="7" stroke="#539FEC" stroke-width="2"/>
<g clip-path="url(#clip0_2294_15142)">
<path d="M42.0004 12.9375C51.5987 12.9375 59.3797 20.7185 59.3797 30.3168C59.3797 39.9152 51.5987 47.6961 42.0004 47.6961C32.4021 47.6961 24.6211 39.9152 24.6211 30.3168C24.6211 20.7185 32.4021 12.9375 42.0004 12.9375ZM40.3196 29.1847C39.8959 28.7609 39.3262 28.5152 38.7272 28.4982C38.1282 28.4811 37.5453 28.6938 37.0982 29.0928L37.0026 29.1847L34.896 31.2913L34.783 31.4105C34.2718 31.9791 33.9895 32.717 33.9907 33.4817C33.9918 34.2463 34.2763 34.9834 34.7892 35.5505L34.896 35.6622L37.0026 37.7688L37.1218 37.8818C37.6904 38.393 38.4283 38.6753 39.193 38.6741C39.9576 38.673 40.6947 38.3885 41.2618 37.8756L41.3735 37.7688L43.4801 35.6622L43.5745 35.5629C43.9724 35.1156 44.1843 34.5331 44.1667 33.9347C44.1492 33.3363 43.9036 32.7672 43.4801 32.344C43.3253 32.1887 43.1167 32.0987 42.8975 32.0925C42.6782 32.0864 42.465 32.1646 42.3017 32.311C42.1384 32.4574 42.0375 32.6609 42.0198 32.8795C42.0021 33.0982 42.0689 33.3152 42.2065 33.4861L42.2685 33.5556L42.3256 33.6214C42.4097 33.7322 42.4548 33.8677 42.4542 34.0068C42.4535 34.1459 42.407 34.281 42.3219 34.391L42.2685 34.4506L40.1619 36.5572L40.075 36.6392C39.8252 36.8493 39.5088 36.9639 39.1823 36.9625C38.8559 36.9612 38.5405 36.8439 38.2924 36.6317L38.2142 36.5572L36.1076 34.4518L36.0256 34.3637C35.8157 34.1137 35.7013 33.7973 35.7029 33.4708C35.7045 33.1443 35.8219 32.829 36.0343 32.5811L36.1063 32.5029L38.213 30.3963L38.2787 30.3392C38.3896 30.2551 38.5251 30.21 38.6642 30.2106C38.8033 30.2113 38.9383 30.2578 39.0484 30.3429L39.1092 30.3963L39.1787 30.4583C39.3496 30.5959 39.5666 30.6627 39.7853 30.645C40.0039 30.6273 40.2074 30.5264 40.3538 30.3631C40.5002 30.1998 40.5784 29.9866 40.5723 29.7673C40.5661 29.5481 40.4761 29.3395 40.3208 29.1847H40.3196ZM44.8668 27.5696C44.7364 27.4396 44.5599 27.3666 44.3758 27.3666C44.1917 27.3666 44.0151 27.4396 43.8848 27.5696L39.6008 31.8524C39.5363 31.917 39.485 31.9936 39.4501 32.0779C39.4152 32.1623 39.3972 32.2527 39.3972 32.344C39.3972 32.4353 39.4152 32.5257 39.4501 32.61C39.485 32.6944 39.5363 32.771 39.6008 32.8356L39.8292 33.064C39.9596 33.194 40.1361 33.267 40.3202 33.267C40.5043 33.267 40.6808 33.194 40.8112 33.064L45.0952 28.7812C45.1597 28.7167 45.2109 28.64 45.2459 28.5557C45.2808 28.4713 45.2988 28.3809 45.2988 28.2896C45.2988 28.1983 45.2808 28.1079 45.2459 28.0236C45.2109 27.9392 45.1597 27.8626 45.0952 27.7981L44.8668 27.5696ZM47.5816 22.7581C46.9936 22.2265 46.2238 21.9411 45.4314 21.961C44.6389 21.9809 43.8844 22.3044 43.3237 22.8648L41.2159 24.9714L41.124 25.0683C40.725 25.5154 40.5123 26.0982 40.5293 26.6972C40.5464 27.2962 40.792 27.866 41.2159 28.2896C41.2954 28.3692 41.3899 28.4323 41.4938 28.4754C41.5977 28.5184 41.7091 28.5406 41.8216 28.5406C41.9342 28.5406 42.0456 28.5184 42.1495 28.4754C42.2534 28.4323 42.3479 28.3692 42.4274 28.2896C42.507 28.2101 42.5701 28.1156 42.6132 28.0117C42.6562 27.9078 42.6784 27.7964 42.6784 27.6838C42.6784 27.5713 42.6562 27.4599 42.6132 27.356C42.5701 27.2521 42.507 27.1576 42.4274 27.0781L42.3741 27.0185C42.2795 26.8967 42.2327 26.7445 42.2425 26.5906C42.2524 26.4368 42.3181 26.2918 42.4274 26.183L44.5341 24.0764L44.6135 24.0019C44.8773 23.7768 45.2163 23.6594 45.5628 23.6732C45.9094 23.687 46.238 23.831 46.483 24.0764L48.5896 26.1818L48.6616 26.2612C48.8871 26.5247 49.0049 26.8635 48.9916 27.2101C48.9782 27.5566 48.8347 27.8854 48.5896 28.1307L46.483 30.2374L46.4222 30.2907C46.3003 30.3851 46.1482 30.4317 45.9944 30.4218C45.8406 30.412 45.6956 30.3464 45.5868 30.2374L45.5172 30.1753C45.3464 30.0377 45.1293 29.9709 44.9107 29.9886C44.6921 30.0063 44.4886 30.1072 44.3422 30.2705C44.1958 30.4338 44.1176 30.6471 44.1237 30.8663C44.1298 31.0856 44.2198 31.2941 44.3752 31.4489C44.593 31.6668 44.8517 31.8397 45.1364 31.9576C45.421 32.0755 45.7261 32.1362 46.0343 32.1362C46.3424 32.1362 46.6475 32.0755 46.9322 31.9576C47.2168 31.8397 47.4755 31.6668 47.6934 31.4489L49.8 29.3423L49.9067 29.2306C50.4387 28.6425 50.7243 27.8724 50.7044 27.0797C50.6845 26.2869 50.3607 25.5322 49.8 24.9714L47.6934 22.8648L47.5816 22.7581Z" fill="white"/>
</g>
<path d="M71.4141 36V24.7266H75.9453C78.0625 24.7266 79.3359 25.8047 79.3359 27.5312V27.5469C79.3359 28.7188 78.4688 29.7734 77.3594 29.9609V30.0938C78.8828 30.2578 79.8984 31.3359 79.8984 32.8047V32.8203C79.8984 34.7969 78.4531 36 76.0469 36H71.4141ZM75.5391 26.1562H73.1641V29.5234H75.2422C76.7891 29.5234 77.5938 28.9453 77.5938 27.8516V27.8359C77.5938 26.7734 76.8359 26.1562 75.5391 26.1562ZM75.5938 30.8594H73.1641V34.5703H75.6953C77.2734 34.5703 78.1094 33.9219 78.1094 32.7109V32.6953C78.1094 31.4844 77.2422 30.8594 75.5938 30.8594ZM84.2812 36.1406C82.6641 36.1406 81.4688 35.1562 81.4688 33.6172V33.6016C81.4688 32.0859 82.6094 31.2031 84.6328 31.0781L86.9297 30.9453V30.1953C86.9297 29.2656 86.3438 28.75 85.1953 28.75C84.2578 28.75 83.6406 29.0938 83.4375 29.6953L83.4297 29.7266H81.7969L81.8047 29.6719C82.0078 28.2812 83.3438 27.3516 85.2734 27.3516C87.4062 27.3516 88.6094 28.4141 88.6094 30.1953V36H86.9297V34.7969H86.7969C86.2969 35.6562 85.4062 36.1406 84.2812 36.1406ZM83.1562 33.5469C83.1562 34.3281 83.8203 34.7891 84.7344 34.7891C86 34.7891 86.9297 33.9609 86.9297 32.8672V32.1406L84.8594 32.2734C83.6875 32.3438 83.1562 32.7656 83.1562 33.5312V33.5469ZM94.2031 36.0547C92.3359 36.0547 91.5703 35.3984 91.5703 33.7656V28.8516H90.2422V27.5156H91.5703V25.375H93.2969V27.5156H95.1172V28.8516H93.2969V33.3594C93.2969 34.2734 93.6406 34.6484 94.4766 34.6484C94.7344 34.6484 94.8828 34.6406 95.1172 34.6172V35.9688C94.8438 36.0156 94.5312 36.0547 94.2031 36.0547ZM100.57 36.1641C98.0938 36.1641 96.5781 34.4766 96.5781 31.7344V31.7188C96.5781 29.0312 98.0859 27.3516 100.562 27.3516C102.695 27.3516 103.969 28.5547 104.203 30.2031V30.2422L102.578 30.25L102.57 30.2266C102.383 29.3906 101.695 28.7656 100.57 28.7656C99.1562 28.7656 98.3047 29.8906 98.3047 31.7188V31.7344C98.3047 33.6094 99.1719 34.75 100.57 34.75C101.633 34.75 102.289 34.2656 102.562 33.3516L102.578 33.3125H104.203L104.188 33.3828C103.883 35.0312 102.672 36.1641 100.57 36.1641ZM106.203 36V24.1875H107.898V28.8047H108.023C108.438 27.8984 109.25 27.3516 110.484 27.3516C112.383 27.3516 113.43 28.4844 113.43 30.5078V36H111.742V30.9062C111.742 29.5 111.156 28.8047 109.914 28.8047C108.672 28.8047 107.898 29.6562 107.898 31.0234V36H106.203ZM123.742 36.1641C121.266 36.1641 119.75 34.4766 119.75 31.7344V31.7188C119.75 29.0312 121.258 27.3516 123.734 27.3516C125.867 27.3516 127.141 28.5547 127.375 30.2031V30.2422L125.75 30.25L125.742 30.2266C125.555 29.3906 124.867 28.7656 123.742 28.7656C122.328 28.7656 121.477 29.8906 121.477 31.7188V31.7344C121.477 33.6094 122.344 34.75 123.742 34.75C124.805 34.75 125.461 34.2656 125.734 33.3516L125.75 33.3125H127.375L127.359 33.3828C127.055 35.0312 125.844 36.1641 123.742 36.1641ZM129.375 36V24.1875H131.07V28.8047H131.195C131.609 27.8984 132.422 27.3516 133.656 27.3516C135.555 27.3516 136.602 28.4844 136.602 30.5078V36H134.914V30.9062C134.914 29.5 134.328 28.8047 133.086 28.8047C131.844 28.8047 131.07 29.6562 131.07 31.0234V36H129.375ZM141.297 36.1406C139.68 36.1406 138.484 35.1562 138.484 33.6172V33.6016C138.484 32.0859 139.625 31.2031 141.648 31.0781L143.945 30.9453V30.1953C143.945 29.2656 143.359 28.75 142.211 28.75C141.273 28.75 140.656 29.0938 140.453 29.6953L140.445 29.7266H138.812L138.82 29.6719C139.023 28.2812 140.359 27.3516 142.289 27.3516C144.422 27.3516 145.625 28.4141 145.625 30.1953V36H143.945V34.7969H143.812C143.312 35.6562 142.422 36.1406 141.297 36.1406ZM140.172 33.5469C140.172 34.3281 140.836 34.7891 141.75 34.7891C143.016 34.7891 143.945 33.9609 143.945 32.8672V32.1406L141.875 32.2734C140.703 32.3438 140.172 32.7656 140.172 33.5312V33.5469ZM148.898 26C148.312 26 147.836 25.5234 147.836 24.9453C147.836 24.3594 148.312 23.8828 148.898 23.8828C149.477 23.8828 149.961 24.3594 149.961 24.9453C149.961 25.5234 149.477 26 148.898 26ZM148.047 36V27.5156H149.734V36H148.047ZM152.203 36V27.5156H153.898V28.8047H154.023C154.438 27.8984 155.25 27.3516 156.484 27.3516C158.383 27.3516 159.43 28.4844 159.43 30.5078V36H157.742V30.9062C157.742 29.5 157.156 28.8047 155.914 28.8047C154.672 28.8047 153.898 29.6562 153.898 31.0234V36H152.203Z" fill="white"/>
<defs>
<clipPath id="clip0_2294_15142">
<rect width="36" height="36" fill="white" transform="translate(24 12)"/>
</clipPath>
</defs>
</svg>
