<svg width="186" height="110" viewBox="0 0 186 110" fill="none" xmlns="http://www.w3.org/2000/svg">
<g opacity="0.3">
<path fill-rule="evenodd" clip-rule="evenodd" d="M171.81 3L172.982 3.07647L174.078 3.22942L175.149 3.50984L176.169 3.89222L178.081 4.91191L178.922 5.54921L179.738 6.28848L180.451 7.07874L181.649 8.86319L182.134 9.83189L182.491 10.8516L182.771 11.9222L182.95 13.0184L183.001 14.191L182.975 15.1597L167.221 105.02H54.8516V17.454L58.7774 6.46692L59.1088 5.72765L59.5421 5.06486L60.0775 4.45304L60.6893 3.9687L61.3521 3.56081L62.0913 3.25492L62.8816 3.07647L63.6973 3H171.81Z" fill="url(#paint0_linear_1100_16554)" stroke="#096DD9" stroke-width="5.85068"/>
<path fill-rule="evenodd" clip-rule="evenodd" d="M148.892 16.5873L149.758 16.6383L150.574 16.7912L151.339 17.0461L152.741 17.8109L153.939 18.8816L154.424 19.5189L155.188 20.9464L155.418 21.7367L155.571 22.5779L163.83 98.621H44.6289V23.2917L44.7054 22.374L44.8583 21.5073L45.1642 20.6915L45.5466 19.9013L46.031 19.213L46.5918 18.5502L47.2291 17.9893L47.9429 17.505L48.7331 17.1226L49.5489 16.8422L50.4156 16.6638L51.3333 16.5873H148.892Z" fill="url(#paint1_linear_1100_16554)" stroke="#096DD9" stroke-width="5.85068"/>
<path fill-rule="evenodd" clip-rule="evenodd" d="M37.4654 22.1443L38.2046 22.2208L38.9184 22.4503L39.5812 22.8326L56.0491 34.2786L56.8649 34.6355L127.07 34.6865L128.447 34.763L129.798 34.9414L131.098 35.2728L132.373 35.7062L133.571 36.267L134.743 36.9298L135.814 37.6946L136.834 38.5613L137.751 39.53L138.593 40.6007L139.332 41.7223L139.969 42.9714L166.609 101.221L166.914 102.241L166.94 102.776L166.863 103.541L166.66 104.229L166.303 104.866L165.844 105.402L165.308 105.861L164.671 106.217L163.983 106.421L163.218 106.498H45.2405L44.5267 106.447L43.8894 106.243L43.2776 105.937L42.7168 105.529L42.2579 105.045L41.901 104.433L3.38238 27.5487L3.02549 26.4525L3 25.8917L3.07648 25.1269L3.28042 24.4386L3.6373 23.8013L4.07067 23.2405L4.6315 22.7817L5.2688 22.4503L5.95709 22.2208L6.72185 22.1443H37.4654Z" fill="url(#paint2_linear_1100_16554)" stroke="#096DD9" stroke-width="5.85068"/>
</g>
<defs>
<linearGradient id="paint0_linear_1100_16554" x1="76.3511" y1="27.1764" x2="158.123" y2="97.1603" gradientUnits="userSpaceOnUse">
<stop stop-color="#1890FF"/>
<stop offset="1" stop-color="#A4D4FF"/>
</linearGradient>
<linearGradient id="paint1_linear_1100_16554" x1="163.83" y1="70.9794" x2="73.5245" y2="22.508" gradientUnits="userSpaceOnUse">
<stop stop-color="#1890FF"/>
<stop offset="1" stop-color="#80B9FF"/>
</linearGradient>
<linearGradient id="paint2_linear_1100_16554" x1="17.9111" y1="53.8083" x2="85.7973" y2="103.716" gradientUnits="userSpaceOnUse">
<stop stop-color="#E7EFFF"/>
<stop offset="1" stop-color="#36A0FF"/>
</linearGradient>
</defs>
</svg>
