<svg width="121" height="124" viewBox="0 0 121 124" fill="none" xmlns="http://www.w3.org/2000/svg">
<path fill-rule="evenodd" clip-rule="evenodd" d="M96.7115 0L98.6938 0.0792919L100.597 0.317184L102.447 0.687226L104.218 1.21586L105.989 1.87665L107.654 2.6696L109.24 3.56828L110.773 4.59913L112.2 5.73569L113.522 6.97798L114.764 8.29957L115.901 9.75331L116.932 11.2599L117.83 12.8458L118.623 14.511L119.284 16.2819L119.813 18.0529L120.183 19.9031L120.421 21.8062L120.5 23.7885V82.9956L120.421 84.978L120.183 86.8811L119.813 88.7313L119.284 90.5286L118.623 92.2731L117.83 93.9383L116.932 95.5242L115.901 97.0573L114.764 98.4846L113.522 99.8062L112.2 101.048L110.773 102.185L109.24 103.216L107.654 104.115L105.989 104.907L104.218 105.568L102.447 106.097L100.597 106.467L98.6938 106.705L96.7115 106.784H75.3811L64.8084 121.639L64.2797 122.247L63.5661 122.855L62.7203 123.357L61.8745 123.674L60.9758 123.833H60.0771L59.1784 123.674L58.3326 123.383L57.5396 122.934L56.826 122.352L56.1916 121.639L45.6189 106.784H24.2885L22.3062 106.705L20.4031 106.467L18.5529 106.097L16.7819 105.568L15.011 104.907L13.3458 104.115L11.7599 103.216L10.2269 102.185L8.79957 101.048L7.47798 99.8062L6.23569 98.4846L5.09913 97.0573L4.06828 95.5242L3.1696 93.9383L2.37665 92.2731L1.71585 90.5286L1.18722 88.7313L0.817184 86.8811L0.579292 84.978L0.5 82.9956V23.7885L0.579292 21.8062L0.817184 19.9031L1.18722 18.0529L1.71585 16.2819L2.37665 14.511L3.1696 12.8458L4.06828 11.2599L5.09913 9.75331L6.23569 8.29957L7.47798 6.97798L8.79957 5.73569L10.2269 4.59913L11.7599 3.56828L13.3458 2.6696L15.011 1.87665L16.7819 1.21586L18.5529 0.687226L20.4031 0.317184L22.3062 0.0792919L24.2885 0H96.7115Z" fill="url(#paint0_linear_1060_4026)"/>
<path fill-rule="evenodd" clip-rule="evenodd" d="M37.3456 48.8982L37.2663 50.0877L37.0284 51.2242L36.6583 52.3079L36.1561 53.3124L35.5218 54.2375L34.7817 55.0568L33.9623 55.7969L33.0372 56.4313L32.0064 56.9335L30.9491 57.3035L29.8125 57.5414L28.6231 57.6207L27.4337 57.5414L26.2971 57.3035L25.2398 56.9335L24.209 56.4313L23.2839 55.7969L22.4645 55.0568L21.7244 54.2375L21.0901 53.3124L20.5879 52.3079L20.2178 51.2242L19.9799 50.0877L19.9006 48.8982L19.9799 47.7088L20.2178 46.5723L20.5879 45.515L21.0901 44.4841L21.7244 43.559L22.4645 42.7397L23.2839 41.9996L24.209 41.3652L25.2398 40.863L26.2971 40.493L27.4337 40.2551L28.6231 40.1758L29.8125 40.2551L30.9491 40.493L32.0064 40.863L33.0372 41.3652L33.9623 41.9996L34.7817 42.7397L35.5218 43.559L36.1561 44.4841L36.6583 45.515L37.0284 46.5723L37.2663 47.7088L37.3456 48.8982Z" fill="white"/>
<path fill-rule="evenodd" clip-rule="evenodd" d="M69.222 48.8982L69.1427 50.0877L68.9049 51.2242L68.5348 52.3079L68.0326 53.3124L67.3982 54.2375L66.6582 55.0568L65.8388 55.7969L64.9137 56.4313L63.8828 56.9335L62.8256 57.3035L61.689 57.5414L60.4996 57.6207L59.3101 57.5414L58.1736 57.3035L57.1163 56.9335L56.0855 56.4313L55.1604 55.7969L54.341 55.0568L53.6009 54.2375L52.9665 53.3124L52.4643 52.3079L52.0943 51.2242L51.8564 50.0877L51.7771 48.8982L51.8564 47.7088L52.0943 46.5723L52.4643 45.515L52.9665 44.4841L53.6009 43.559L54.341 42.7397L55.1604 41.9996L56.0855 41.3652L57.1163 40.863L58.1736 40.493L59.3101 40.2551L60.4996 40.1758L61.689 40.2551L62.8256 40.493L63.8828 40.863L64.9137 41.3652L65.8388 41.9996L66.6582 42.7397L67.3982 43.559L68.0326 44.4841L68.5348 45.515L68.9049 46.5723L69.1427 47.7088L69.222 48.8982Z" fill="white"/>
<path fill-rule="evenodd" clip-rule="evenodd" d="M101.099 48.8982L101.02 50.0877L100.782 51.2242L100.412 52.3079L99.9096 53.3124L99.2752 54.2375L98.5351 55.0568L97.7157 55.7969L96.7906 56.4313L95.7598 56.9335L94.7025 57.3035L93.5659 57.5414L92.3765 57.6207L91.1871 57.5414L90.0505 57.3035L88.9933 56.9335L87.9624 56.4313L87.0373 55.7969L86.2179 55.0568L85.4778 54.2375L84.8435 53.3124L84.3413 52.3079L83.9712 51.2242L83.7334 50.0877L83.6541 48.8982L83.7334 47.7088L83.9712 46.5723L84.3413 45.515L84.8435 44.4841L85.4778 43.559L86.2179 42.7397L87.0373 41.9996L87.9624 41.3652L88.9933 40.863L90.0505 40.493L91.1871 40.2551L92.3765 40.1758L93.5659 40.2551L94.7025 40.493L95.7598 40.863L96.7906 41.3652L97.7157 41.9996L98.5351 42.7397L99.2752 43.559L99.9096 44.4841L100.412 45.515L100.782 46.5723L101.02 47.7088L101.099 48.8982Z" fill="white"/>
<defs>
<linearGradient id="paint0_linear_1060_4026" x1="23.069" y1="9.00832" x2="69.8298" y2="93.2934" gradientUnits="userSpaceOnUse">
<stop stop-color="#40A9FF"/>
<stop offset="1" stop-color="#BAE7FF"/>
</linearGradient>
</defs>
</svg>
