<svg width="16" height="16" viewBox="0 0 16 16" fill="none" xmlns="http://www.w3.org/2000/svg">
<path d="M8.00148 0.417969C12.2674 0.417969 15.7256 3.87618 15.7256 8.14211C15.7256 12.408 12.2674 15.8662 8.00148 15.8662C3.73555 15.8662 0.277344 12.408 0.277344 8.14211C0.277344 3.87618 3.73555 0.417969 8.00148 0.417969ZM7.25445 7.63894C7.06615 7.45058 6.81293 7.34141 6.5467 7.33382C6.28048 7.32623 6.02144 7.42079 5.82272 7.59811L5.78024 7.63894L4.84396 8.57521L4.79376 8.62818C4.56655 8.8809 4.44108 9.20887 4.44159 9.54871C4.4421 9.88855 4.56855 10.2161 4.79652 10.4682L4.84396 10.5178L5.78024 11.4541L5.83321 11.5043C6.08593 11.7315 6.4139 11.857 6.75374 11.8565C7.09358 11.856 7.42116 11.7295 7.67321 11.5016L7.72286 11.4541L8.65914 10.5178L8.70107 10.4737C8.87792 10.2749 8.97209 10.016 8.9643 9.75005C8.9565 9.48409 8.84733 9.23117 8.65914 9.04307C8.59031 8.97404 8.49763 8.93404 8.40019 8.93131C8.30274 8.92859 8.20797 8.96334 8.13539 9.02842C8.06282 9.0935 8.01797 9.18394 8.01009 9.2811C8.00222 9.37826 8.03192 9.47474 8.09307 9.55066L8.12065 9.58156L8.14603 9.6108C8.18338 9.66008 8.20345 9.72028 8.20316 9.78211C8.20286 9.84394 8.1822 9.90395 8.14438 9.95287L8.12065 9.97935L7.18438 10.9156L7.14576 10.952C7.03471 11.0454 6.89411 11.0964 6.74901 11.0958C6.60391 11.0952 6.46374 11.043 6.35348 10.9487L6.31872 10.9156L5.38245 9.9799L5.34603 9.94073C5.25271 9.82962 5.20188 9.68898 5.20259 9.54388C5.20329 9.39878 5.2555 9.25865 5.3499 9.14845L5.3819 9.11369L6.31817 8.17742L6.34741 8.15204C6.39669 8.11469 6.4569 8.09462 6.51873 8.09492C6.58056 8.09522 6.64057 8.11587 6.68948 8.15369L6.71652 8.17742L6.74741 8.205C6.82333 8.26615 6.91981 8.29585 7.01697 8.28798C7.11413 8.2801 7.20457 8.23526 7.26965 8.16268C7.33473 8.0901 7.36949 7.99533 7.36676 7.89789C7.36403 7.80044 7.32403 7.70776 7.255 7.63894H7.25445ZM9.27541 6.92114C9.21749 6.86336 9.13902 6.83091 9.05721 6.83091C8.97539 6.83091 8.89692 6.86336 8.839 6.92114L6.935 8.82459C6.90631 8.85328 6.88354 8.88734 6.86802 8.92483C6.85249 8.96232 6.84449 9.0025 6.84449 9.04307C6.84449 9.08365 6.85249 9.12383 6.86802 9.16132C6.88354 9.1988 6.90631 9.23287 6.935 9.26156L7.03652 9.36307C7.09444 9.42085 7.17291 9.4533 7.25472 9.4533C7.33654 9.4533 7.41501 9.42085 7.47293 9.36307L9.37693 7.45962C9.40562 7.43093 9.42838 7.39687 9.44391 7.35939C9.45944 7.3219 9.46743 7.28172 9.46743 7.24114C9.46743 7.20057 9.45944 7.16039 9.44391 7.1229C9.42838 7.08541 9.40562 7.05135 9.37693 7.02266L9.27541 6.92114ZM10.482 4.78266C10.2207 4.5464 9.87855 4.41959 9.52635 4.42842C9.17415 4.43725 8.83881 4.58105 8.58962 4.83011L7.65279 5.76638L7.61196 5.80942C7.43464 6.00814 7.34008 6.26718 7.34767 6.5334C7.35527 6.79962 7.46444 7.05285 7.65279 7.24114C7.68815 7.2765 7.73012 7.30455 7.77632 7.32368C7.82252 7.34282 7.87203 7.35267 7.92203 7.35267C7.97204 7.35267 8.02155 7.34282 8.06775 7.32368C8.11394 7.30455 8.15592 7.2765 8.19128 7.24114C8.22663 7.20578 8.25468 7.16381 8.27381 7.11761C8.29295 7.07142 8.3028 7.0219 8.3028 6.9719C8.3028 6.9219 8.29295 6.87239 8.27381 6.82619C8.25468 6.77999 8.22663 6.73802 8.19127 6.70266L8.16755 6.67618C8.12552 6.62205 8.10473 6.55442 8.1091 6.48603C8.11347 6.41764 8.14269 6.3532 8.19127 6.30487L9.12755 5.36859L9.16286 5.33549C9.28011 5.23543 9.43077 5.18326 9.58479 5.1894C9.7388 5.19553 9.88484 5.25952 9.99376 5.36859L10.93 6.30431L10.962 6.33962C11.0622 6.45674 11.1146 6.60732 11.1087 6.76134C11.1027 6.91535 11.0389 7.06146 10.93 7.17052L9.99376 8.1068L9.96672 8.13052C9.91255 8.17244 9.84495 8.19316 9.77659 8.18879C9.70823 8.18442 9.64381 8.15527 9.59541 8.1068L9.56452 8.07921C9.4886 8.01806 9.39212 7.98836 9.29496 7.99624C9.1978 8.00411 9.10736 8.04896 9.04228 8.12154C8.9772 8.19411 8.94244 8.28889 8.94517 8.38633C8.94789 8.48377 8.9879 8.57646 9.05693 8.64528C9.15376 8.74212 9.26872 8.81894 9.39524 8.87135C9.52176 8.92376 9.65736 8.95074 9.79431 8.95074C9.93126 8.95074 10.0669 8.92376 10.1934 8.87135C10.3199 8.81894 10.4349 8.74212 10.5317 8.64528L11.468 7.709L11.5154 7.65935C11.7518 7.39796 11.8787 7.05572 11.8699 6.70339C11.8611 6.35106 11.7172 6.01559 11.468 5.76638L10.5317 4.83011L10.482 4.78266Z" fill="white"/>
</svg>
