<svg width="9" height="10" viewBox="0 0 9 10" fill="none" xmlns="http://www.w3.org/2000/svg">
<path d="M4.48828 0.234375C5.25781 0.234375 5.99609 0.427734 6.70312 0.814453C7.41016 1.20117 7.96484 1.75391 8.36719 2.47266C8.77344 3.1875 8.97656 3.9375 8.97656 4.72266C8.97656 5.50391 8.77734 6.25 8.37891 6.96094C7.98438 7.66797 7.43164 8.2207 6.7207 8.61914C6.01367 9.01367 5.26953 9.21094 4.48828 9.21094C3.70703 9.21094 2.96094 9.01367 2.25 8.61914C1.54297 8.2207 0.990234 7.66797 0.591797 6.96094C0.197266 6.25 0 5.50391 0 4.72266C0 3.9375 0.201172 3.1875 0.603516 2.47266C1.00977 1.75391 1.56641 1.20117 2.27344 0.814453C2.98047 0.427734 3.71875 0.234375 4.48828 0.234375ZM4.48828 1.11914C3.87109 1.11914 3.27734 1.27344 2.70703 1.58203C2.14062 1.89062 1.69531 2.33398 1.37109 2.91211C1.04688 3.48633 0.884766 4.08984 0.884766 4.72266C0.884766 5.34766 1.04297 5.94531 1.35938 6.51562C1.67969 7.08594 2.125 7.53125 2.69531 7.85156C3.26562 8.16797 3.86328 8.32617 4.48828 8.32617C5.11328 8.32617 5.71094 8.16797 6.28125 7.85156C6.85156 7.53125 7.29492 7.08594 7.61133 6.51562C7.93164 5.94531 8.0918 5.34766 8.0918 4.72266C8.0918 4.09375 7.92969 3.49023 7.60547 2.91211C7.28125 2.33398 6.83398 1.89062 6.26367 1.58203C5.69727 1.27344 5.10547 1.11914 4.48828 1.11914ZM5.57812 5.39062L6.52148 5.70703C6.37305 6.19922 6.12695 6.57617 5.7832 6.83789C5.43945 7.09961 5.0293 7.23047 4.55273 7.23047C3.88477 7.23047 3.33984 7.01172 2.91797 6.57422C2.49609 6.13672 2.28516 5.5332 2.28516 4.76367C2.28516 4.25977 2.37891 3.81055 2.56641 3.41602C2.75391 3.02148 3.02344 2.72656 3.375 2.53125C3.73047 2.33594 4.12695 2.23828 4.56445 2.23828C5.04492 2.23828 5.44531 2.35352 5.76562 2.58398C6.08984 2.81055 6.3418 3.16992 6.52148 3.66211L5.57227 3.88477C5.46289 3.59961 5.32031 3.39258 5.14453 3.26367C4.97266 3.13477 4.76758 3.07031 4.5293 3.07031C4.17383 3.07031 3.88281 3.20508 3.65625 3.47461C3.42969 3.74023 3.31641 4.1582 3.31641 4.72852C3.31641 5.29883 3.42773 5.71875 3.65039 5.98828C3.87305 6.25781 4.14062 6.39258 4.45312 6.39258C4.71484 6.39258 4.94141 6.31641 5.13281 6.16406C5.32422 6.00781 5.47266 5.75 5.57812 5.39062Z" fill="#575E6B"/>
</svg>
