<svg width="64" height="64" viewBox="0 0 64 64" fill="none" xmlns="http://www.w3.org/2000/svg">
<g clip-path="url(#clip0_4002_24)">
<path d="M0.653076 8.48981V55.5102C0.653076 57.5887 3.95569 59.5819 9.8344 61.0516C15.7131 62.5213 23.6863 63.347 32 63.347C40.3137 63.347 48.287 62.5213 54.1656 61.0516C60.0444 59.5819 63.347 57.5887 63.347 55.5102V8.48981C63.347 10.5682 60.0444 12.5615 54.1656 14.0312C48.287 15.5009 40.3137 16.3265 32 16.3265C23.6863 16.3265 15.7131 15.5009 9.8344 14.0312C3.95569 12.5615 0.653076 10.5682 0.653076 8.48981C0.653076 6.41138 3.95569 4.41808 9.8344 2.9484C15.7131 1.47873 23.6863 0.653076 32 0.653076C40.3137 0.653076 48.287 1.47873 54.1656 2.9484C60.0444 4.41808 63.347 6.41138 63.347 8.48981C63.347 10.5682 60.0444 12.5615 54.1656 14.0312C48.287 15.5009 40.3137 16.3265 32 16.3265C23.6863 16.3265 15.7131 15.5009 9.8344 14.0312C3.95569 12.5615 0.653076 10.5682 0.653076 8.48981Z" fill="curentColor" fill-opacity="0.8"/>
</g>
<defs>
<clipPath id="clip0_4002_24">
<rect width="64" height="64" fill="white"/>
</clipPath>
</defs>
</svg>
