<svg width="185" height="60" viewBox="0 0 185 60" fill="none" xmlns="http://www.w3.org/2000/svg">
<rect x="1" y="1" width="183" height="58" rx="29" fill="#EF8636" fill-opacity="0.3"/>
<rect x="1" y="1" width="183" height="58" rx="29" stroke="#EF8636" stroke-width="2"/>
<path d="M67.25 17.625V21C67.25 24.1078 60.1977 26.625 51.5 26.625C42.8023 26.625 35.75 24.1078 35.75 21V17.625C35.75 14.5172 42.8023 12 51.5 12C60.1977 12 67.25 14.5172 67.25 17.625ZM63.3969 27.0961C64.8594 26.5758 66.2023 25.9078 67.25 25.0852V32.25C67.25 35.3578 60.1977 37.875 51.5 37.875C42.8023 37.875 35.75 35.3578 35.75 32.25V25.0852C36.7977 25.9148 38.1406 26.5758 39.6031 27.0961C42.7602 28.2211 46.9648 28.875 51.5 28.875C56.0352 28.875 60.2398 28.2211 63.3969 27.0961ZM35.75 36.3352C36.7977 37.1648 38.1406 37.8258 39.6031 38.3461C42.7602 39.4711 46.9648 40.125 51.5 40.125C56.0352 40.125 60.2398 39.4711 63.3969 38.3461C64.8594 37.8258 66.2023 37.1578 67.25 36.3352V42.375C67.25 45.4828 60.1977 48 51.5 48C42.8023 48 35.75 45.4828 35.75 42.375V36.3352Z" fill="white"/>
<path d="M83.8125 36.1406C81.6797 36.1406 80.2969 34.4297 80.2969 31.7656V31.75C80.2969 29.0625 81.6562 27.3672 83.8125 27.3672C84.9766 27.3672 85.9688 27.9453 86.4219 28.8594H86.5547V24.1875H88.2422V36H86.5547V34.6641H86.4219C85.9297 35.5938 85 36.1406 83.8125 36.1406ZM84.2969 34.6953C85.7109 34.6953 86.5781 33.5781 86.5781 31.7656V31.75C86.5781 29.9375 85.7031 28.8203 84.2969 28.8203C82.875 28.8203 82.0234 29.9297 82.0234 31.75V31.7656C82.0234 33.5859 82.875 34.6953 84.2969 34.6953ZM93.0938 36.1406C91.4766 36.1406 90.2812 35.1562 90.2812 33.6172V33.6016C90.2812 32.0859 91.4219 31.2031 93.4453 31.0781L95.7422 30.9453V30.1953C95.7422 29.2656 95.1562 28.75 94.0078 28.75C93.0703 28.75 92.4531 29.0938 92.25 29.6953L92.2422 29.7266H90.6094L90.6172 29.6719C90.8203 28.2812 92.1562 27.3516 94.0859 27.3516C96.2188 27.3516 97.4219 28.4141 97.4219 30.1953V36H95.7422V34.7969H95.6094C95.1094 35.6562 94.2188 36.1406 93.0938 36.1406ZM91.9688 33.5469C91.9688 34.3281 92.6328 34.7891 93.5469 34.7891C94.8125 34.7891 95.7422 33.9609 95.7422 32.8672V32.1406L93.6719 32.2734C92.5 32.3438 91.9688 32.7656 91.9688 33.5312V33.5469ZM103.016 36.0547C101.148 36.0547 100.383 35.3984 100.383 33.7656V28.8516H99.0547V27.5156H100.383V25.375H102.109V27.5156H103.93V28.8516H102.109V33.3594C102.109 34.2734 102.453 34.6484 103.289 34.6484C103.547 34.6484 103.695 34.6406 103.93 34.6172V35.9688C103.656 36.0156 103.344 36.0547 103.016 36.0547ZM108.234 36.1406C106.617 36.1406 105.422 35.1562 105.422 33.6172V33.6016C105.422 32.0859 106.562 31.2031 108.586 31.0781L110.883 30.9453V30.1953C110.883 29.2656 110.297 28.75 109.148 28.75C108.211 28.75 107.594 29.0938 107.391 29.6953L107.383 29.7266H105.75L105.758 29.6719C105.961 28.2812 107.297 27.3516 109.227 27.3516C111.359 27.3516 112.562 28.4141 112.562 30.1953V36H110.883V34.7969H110.75C110.25 35.6562 109.359 36.1406 108.234 36.1406ZM107.109 33.5469C107.109 34.3281 107.773 34.7891 108.688 34.7891C109.953 34.7891 110.883 33.9609 110.883 32.8672V32.1406L108.812 32.2734C107.641 32.3438 107.109 32.7656 107.109 33.5312V33.5469ZM119.461 36.1406C118.273 36.1406 117.344 35.5938 116.852 34.6641H116.727V36H115.031V24.1875H116.727V28.8594H116.852C117.305 27.9453 118.297 27.3672 119.461 27.3672C121.617 27.3672 122.977 29.0625 122.977 31.75V31.7656C122.977 34.4297 121.602 36.1406 119.461 36.1406ZM118.984 34.6953C120.398 34.6953 121.25 33.5859 121.25 31.7656V31.75C121.25 29.9297 120.398 28.8203 118.984 28.8203C117.57 28.8203 116.695 29.9375 116.695 31.75V31.7656C116.695 33.5781 117.57 34.6953 118.984 34.6953ZM127.328 36.1406C125.711 36.1406 124.516 35.1562 124.516 33.6172V33.6016C124.516 32.0859 125.656 31.2031 127.68 31.0781L129.977 30.9453V30.1953C129.977 29.2656 129.391 28.75 128.242 28.75C127.305 28.75 126.688 29.0938 126.484 29.6953L126.477 29.7266H124.844L124.852 29.6719C125.055 28.2812 126.391 27.3516 128.32 27.3516C130.453 27.3516 131.656 28.4141 131.656 30.1953V36H129.977V34.7969H129.844C129.344 35.6562 128.453 36.1406 127.328 36.1406ZM126.203 33.5469C126.203 34.3281 126.867 34.7891 127.781 34.7891C129.047 34.7891 129.977 33.9609 129.977 32.8672V32.1406L127.906 32.2734C126.734 32.3438 126.203 32.7656 126.203 33.5312V33.5469ZM137.133 36.1641C135.086 36.1641 133.789 35.2031 133.625 33.7812V33.7734H135.32L135.328 33.7812C135.539 34.4219 136.156 34.8516 137.164 34.8516C138.211 34.8516 138.938 34.375 138.938 33.6797V33.6641C138.938 33.1328 138.539 32.7734 137.555 32.5469L136.203 32.2344C134.602 31.8672 133.859 31.1406 133.859 29.8984V29.8906C133.859 28.4141 135.234 27.3516 137.156 27.3516C139.094 27.3516 140.336 28.3203 140.484 29.7031V29.7109H138.867V29.6953C138.703 29.1016 138.102 28.6562 137.148 28.6562C136.219 28.6562 135.547 29.1172 135.547 29.7969V29.8125C135.547 30.3438 135.938 30.6719 136.891 30.8984L138.234 31.2031C139.867 31.5859 140.648 32.2812 140.648 33.5078V33.5234C140.648 35.0938 139.148 36.1641 137.133 36.1641ZM146.234 36.1641C143.75 36.1641 142.25 34.4688 142.25 31.7812V31.7734C142.25 29.125 143.781 27.3516 146.148 27.3516C148.516 27.3516 149.969 29.0625 149.969 31.6094V32.2031H143.953C143.984 33.8281 144.875 34.7734 146.273 34.7734C147.359 34.7734 148.008 34.2344 148.211 33.7969L148.242 33.7344L149.875 33.7266L149.859 33.7969C149.578 34.9141 148.406 36.1641 146.234 36.1641ZM146.156 28.7422C145 28.7422 144.125 29.5312 143.977 30.9922H148.289C148.156 29.4766 147.305 28.7422 146.156 28.7422Z" fill="white"/>
</svg>
