<svg width="11" height="15" viewBox="0 0 11 15" fill="none" xmlns="http://www.w3.org/2000/svg">
<path d="M2.02735 14.0214H8.97266C10.3264 14.0214 11 13.3347 11 11.9744V6.03628C11 5.19265 10.9019 4.82639 10.3787 4.29015L6.77527 0.621284C6.27826 0.111172 5.86624 0 5.13378 0H2.02735C0.680138 0 0 0.693219 0 2.05351V11.9744C0 13.3413 0.673603 14.0214 2.02735 14.0214ZM2.07312 12.9685C1.39952 12.9685 1.05291 12.6088 1.05291 11.9549V2.07313C1.05291 1.42568 1.39952 1.05291 2.07965 1.05291H4.98991V4.85257C4.98991 5.67661 5.40193 6.08204 6.21938 6.08204H9.9471V11.9549C9.9471 12.6088 9.60048 12.9685 8.92037 12.9685H2.07312ZM6.33708 5.09454C6.07551 5.09454 5.9774 4.98991 5.9774 4.72828V1.25565L9.74435 5.09454H6.33708Z" fill="white"/>
</svg>
