<svg width="290" height="298" viewBox="0 0 290 298" fill="none" xmlns="http://www.w3.org/2000/svg">
<path d="M0 100C0 44.7715 44.7715 0 100 0H257C275.225 0 290 14.7746 290 33V259C290 280.539 272.539 298 251 298H12C5.37259 298 0 292.627 0 286V100Z" fill="black"/>
<g clip-path="url(#clip0_1577_11076)">
<path d="M145 239C194.706 239 235 198.706 235 149C235 99.2944 194.706 59 145 59C95.2944 59 55 99.2944 55 149C55 198.706 95.2944 239 145 239Z" fill="#828282"/>
<path d="M145 239C194.706 239 235 198.706 235 149C235 99.2944 194.706 59 145 59C95.2944 59 55 99.2944 55 149C55 198.706 95.2944 239 145 239Z" fill="url(#paint0_linear_1577_11076)"/>
<g filter="url(#filter0_d_1577_11076)">
<path d="M178.635 149C178.635 167.575 163.575 182.635 145 182.635C126.425 182.635 111.365 167.575 111.365 149C111.365 130.425 126.425 115.365 145 115.365C163.575 115.365 178.635 130.425 178.635 149Z" fill="white"/>
</g>
<path fill-rule="evenodd" clip-rule="evenodd" d="M138.946 77.5275C138.946 76.3319 139.917 75.361 141.113 75.361H149.982C151.177 75.361 152.148 76.3319 152.148 77.5275V86.3927C152.148 87.5883 151.177 88.5592 149.982 88.5592H148.087V136.78C148.087 139.033 150.811 140.167 152.405 138.57L176.204 114.771V107.344C176.204 106.148 177.175 105.177 178.371 105.177H187.236C188.431 105.177 189.402 106.148 189.402 107.344V116.209C189.402 117.405 188.431 118.376 187.236 118.376H179.755L155.981 142.149C154.391 143.74 155.517 146.468 157.771 146.468H205.444V144.566C205.444 143.37 206.415 142.399 207.611 142.399H216.476C217.672 142.399 218.643 143.37 218.643 144.566V153.431C218.643 154.626 217.672 155.597 216.476 155.597H207.611C206.415 155.597 205.444 154.626 205.444 153.431V151.532H157.771C155.517 151.532 154.383 154.257 155.981 155.851L179.544 179.414H187.236C188.431 179.414 189.402 180.385 189.402 181.581V190.45C189.402 191.645 188.431 192.616 187.236 192.616H178.371C177.175 192.616 176.204 191.645 176.204 190.45V183.229L152.405 159.43C150.815 157.84 148.087 158.967 148.087 161.22V209.401H149.982C151.177 209.401 152.148 210.372 152.148 211.567V220.433C152.148 221.628 151.177 222.599 149.982 222.599H141.113C139.917 222.599 138.946 221.628 138.946 220.433V211.567C138.946 210.372 139.917 209.401 141.113 209.401H143.018V161.22C143.018 158.967 140.294 157.833 138.7 159.43L114.887 183.24V190.446C114.887 191.641 113.919 192.612 112.72 192.612H103.855C102.659 192.612 101.688 191.641 101.688 190.446V181.577C101.688 180.382 102.659 179.411 103.855 179.411H111.557L135.12 155.847C136.711 154.257 135.584 151.529 133.331 151.529H84.5665V153.427C84.5665 154.623 83.5956 155.594 82.4 155.594H73.5348C72.3392 155.594 71.3683 154.623 71.3683 153.427V144.562C71.3683 143.366 72.3392 142.395 73.5348 142.395H82.4C83.5956 142.395 84.5665 143.366 84.5665 144.562V146.464H133.331C135.584 146.464 136.718 143.74 135.12 142.145L111.347 118.372H103.855C102.659 118.372 101.688 117.401 101.688 116.206V107.34C101.688 106.145 102.659 105.174 103.855 105.174H112.72C113.916 105.174 114.887 106.145 114.887 107.34V114.756L138.7 138.566C140.29 140.156 143.018 139.03 143.018 136.776V88.5592H141.113C139.917 88.5592 138.946 87.5883 138.946 86.3927V77.5275Z" fill="white"/>
<path d="M161.278 148.141C157.209 146.917 153.564 145.029 150.916 141.602C148.895 138.986 147.518 136.059 146.703 132.871C146.369 131.574 146.072 130.262 145.75 128.958C145.652 128.57 145.446 128.266 144.978 128.277C144.547 128.284 144.366 128.57 144.257 128.926C144.221 129.041 144.21 129.168 144.181 129.291C143.544 132.211 142.743 135.084 141.431 137.798C139.421 141.95 136.388 145.058 132.099 146.931C130.878 147.468 129.617 147.888 128.345 148.286C127.983 148.399 127.769 148.623 127.751 148.971C127.737 149.304 127.983 149.514 128.269 149.645C128.447 149.728 128.65 149.764 128.845 149.826C131.16 150.54 133.378 151.467 135.374 152.862C139.178 155.525 141.381 159.282 142.804 163.564C143.381 165.292 143.841 167.046 144.185 168.832C144.272 169.295 144.446 169.701 145.051 169.723C145.554 169.661 145.725 169.281 145.808 168.846C146.116 167.205 146.529 165.593 147.043 164.002C148.072 160.821 149.485 157.843 151.793 155.344C154.387 152.532 157.658 150.873 161.292 149.812C161.73 149.681 162.238 149.562 162.249 149.011C162.259 148.42 161.763 148.294 161.281 148.149L161.278 148.141Z" fill="#C0C0C0"/>
<path d="M161.278 148.141C157.209 146.917 153.564 145.029 150.916 141.602C148.895 138.986 147.518 136.059 146.703 132.871C146.369 131.574 146.072 130.262 145.75 128.958C145.652 128.57 145.446 128.266 144.978 128.277C144.547 128.284 144.366 128.57 144.257 128.926C144.221 129.041 144.21 129.168 144.181 129.291C143.544 132.211 142.743 135.084 141.431 137.798C139.421 141.95 136.388 145.058 132.099 146.931C130.878 147.468 129.617 147.888 128.345 148.286C127.983 148.399 127.769 148.623 127.751 148.971C127.737 149.304 127.983 149.514 128.269 149.645C128.447 149.728 128.65 149.764 128.845 149.826C131.16 150.54 133.378 151.467 135.374 152.862C139.178 155.525 141.381 159.282 142.804 163.564C143.381 165.292 143.841 167.046 144.185 168.832C144.272 169.295 144.446 169.701 145.051 169.723C145.554 169.661 145.725 169.281 145.808 168.846C146.116 167.205 146.529 165.593 147.043 164.002C148.072 160.821 149.485 157.843 151.793 155.344C154.387 152.532 157.658 150.873 161.292 149.812C161.73 149.681 162.238 149.562 162.249 149.011C162.259 148.42 161.763 148.294 161.281 148.149L161.278 148.141Z" fill="url(#paint1_linear_1577_11076)"/>
</g>
<defs>
<filter id="filter0_d_1577_11076" x="87.365" y="91.365" width="115.27" height="115.27" filterUnits="userSpaceOnUse" color-interpolation-filters="sRGB">
<feFlood flood-opacity="0" result="BackgroundImageFix"/>
<feColorMatrix in="SourceAlpha" type="matrix" values="0 0 0 0 0 0 0 0 0 0 0 0 0 0 0 0 0 0 127 0" result="hardAlpha"/>
<feOffset/>
<feGaussianBlur stdDeviation="12"/>
<feColorMatrix type="matrix" values="0 0 0 0 1 0 0 0 0 1 0 0 0 0 1 0 0 0 0.75 0"/>
<feBlend mode="normal" in2="BackgroundImageFix" result="effect1_dropShadow_1577_11076"/>
<feBlend mode="normal" in="SourceGraphic" in2="effect1_dropShadow_1577_11076" result="shape"/>
</filter>
<linearGradient id="paint0_linear_1577_11076" x1="145" y1="59" x2="145" y2="239.004" gradientUnits="userSpaceOnUse">
<stop stop-color="#40A9FF"/>
<stop offset="1" stop-color="#1890FF"/>
</linearGradient>
<linearGradient id="paint1_linear_1577_11076" x1="145" y1="128.281" x2="145" y2="169.727" gradientUnits="userSpaceOnUse">
<stop stop-color="#65BAFF"/>
<stop offset="1" stop-color="#1890FF"/>
</linearGradient>
<clipPath id="clip0_1577_11076">
<rect width="180" height="180" fill="white" transform="translate(55 59)"/>
</clipPath>
</defs>
</svg>
