<svg width="121" height="105" viewBox="0 0 121 105" fill="none" xmlns="http://www.w3.org/2000/svg">
<path d="M14.8945 98.662L18.2416 95.8535" stroke="#929293"/>
<path d="M2.73828 74.7982L6.97773 73.7412" stroke="#929293"/>
<path d="M2.26953 48.0186L6.54328 48.927" stroke="#929293"/>
<path d="M13.5898 23.7451L17.0328 26.4351" stroke="#929293"/>
<path d="M34.4023 6.88965L36.3177 10.8167" stroke="#929293"/>
<path d="M60.5 0.865234V5.23447" stroke="#929293"/>
<path d="M86.595 6.88965L84.6797 10.8167" stroke="#929293"/>
<path d="M107.412 23.7451L103.969 26.4351" stroke="#929293"/>
<path d="M118.731 48.0186L114.457 48.927" stroke="#929293"/>
<path d="M118.263 74.7982L114.023 73.7412" stroke="#929293"/>
<path d="M106.101 98.662L102.754 95.8535" stroke="#929293"/>
<path d="M11.6172 94.37L13.8596 92.8115" stroke="#5F5F60"/>
<path d="M8.73828 89.8L11.1127 88.4512" stroke="#5F5F60"/>
<path d="M6.28516 84.9875L8.77202 83.8594" stroke="#5F5F60"/>
<path d="M4.28125 79.9733L6.86012 79.0752" stroke="#5F5F60"/>
<path d="M1.66797 69.5027L4.36659 69.085" stroke="#5F5F60"/>
<path d="M1.08594 64.1334L3.81132 63.9619" stroke="#5F5F60"/>
<path d="M0.992188 58.7324L3.72189 58.8087" stroke="#5F5F60"/>
<path d="M1.38672 53.3467L4.09828 53.67" stroke="#5F5F60"/>
<path d="M3.63281 42.791L6.24146 43.5985" stroke="#5F5F60"/>
<path d="M5.46094 37.71L7.98566 38.7506" stroke="#5F5F60"/>
<path d="M7.74219 32.8145L10.1622 34.0796" stroke="#5F5F60"/>
<path d="M10.4609 28.1465L12.7563 29.6258" stroke="#5F5F60"/>
<path d="M17.1055 19.6436L19.0961 21.5129" stroke="#5F5F60"/>
<path d="M20.9766 15.8779L22.7896 17.92" stroke="#5F5F60"/>
<path d="M25.1719 12.4795L26.7924 14.6775" stroke="#5F5F60"/>
<path d="M29.6602 9.47461L31.0748 11.8104" stroke="#5F5F60"/>
<path d="M39.3594 4.74414L40.3291 7.29693" stroke="#5F5F60"/>
<path d="M44.4922 3.05762L45.2265 5.68779" stroke="#5F5F60"/>
<path d="M49.7539 1.8418L50.2469 4.5277" stroke="#5F5F60"/>
<path d="M55.1055 1.10938L55.353 3.82891" stroke="#5F5F60"/>
<path d="M65.8959 1.10938L65.6484 3.82891" stroke="#5F5F60"/>
<path d="M71.2469 1.8418L70.7539 4.5277" stroke="#5F5F60"/>
<path d="M76.5078 3.05762L75.7734 5.68779" stroke="#5F5F60"/>
<path d="M81.6377 4.74414L80.668 7.29693" stroke="#5F5F60"/>
<path d="M91.3365 9.47461L89.9219 11.8104" stroke="#5F5F60"/>
<path d="M95.8275 12.4795L94.207 14.6775" stroke="#5F5F60"/>
<path d="M100.024 15.8779L98.2109 17.92" stroke="#5F5F60"/>
<path d="M103.897 19.6436L101.906 21.5129" stroke="#5F5F60"/>
<path d="M110.538 28.1465L108.242 29.6258" stroke="#5F5F60"/>
<path d="M113.256 32.8145L110.836 34.0796" stroke="#5F5F60"/>
<path d="M115.54 37.71L113.016 38.7506" stroke="#5F5F60"/>
<path d="M117.366 42.791L114.758 43.5985" stroke="#5F5F60"/>
<path d="M119.61 53.3467L116.898 53.67" stroke="#5F5F60"/>
<path d="M120.007 58.7324L117.277 58.8087" stroke="#5F5F60"/>
<path d="M119.913 64.1334L117.188 63.9619" stroke="#5F5F60"/>
<path d="M119.331 69.5027L116.633 69.085" stroke="#5F5F60"/>
<path d="M116.719 79.9733L114.141 79.0752" stroke="#5F5F60"/>
<path d="M114.713 84.9875L112.227 83.8594" stroke="#5F5F60"/>
<path d="M112.261 89.8L109.887 88.4512" stroke="#5F5F60"/>
<path d="M109.383 94.37L107.141 92.8115" stroke="#5F5F60"/>
<g filter="url(#filter0_d_1006_24073)">
<path d="M24.1449 96.3564C22.7542 96.3564 21.9066 95.2158 21.9066 93.3955V93.3877C21.9066 91.5635 22.7542 90.4307 24.1449 90.4307C25.5394 90.4307 26.3831 91.5635 26.3831 93.3877V93.3955C26.3831 95.2158 25.5394 96.3564 24.1449 96.3564ZM24.1449 95.4229C24.8128 95.4229 25.1917 94.6689 25.1917 93.3955V93.3877C25.1917 92.1104 24.8128 91.3643 24.1449 91.3643C23.4808 91.3643 23.1019 92.1104 23.1019 93.3877V93.3955C23.1019 94.6689 23.4808 95.4229 24.1449 95.4229Z" fill="white" fill-opacity="0.5"/>
<path d="M15.751 77V76.36H16.895V72.32L15.823 73.128L15.431 72.592L17.087 71.4H17.615V76.36H18.567V77H15.751ZM21.7879 77.096C21.1639 77.096 20.6892 76.8427 20.3639 76.336C20.0386 75.824 19.8759 75.1093 19.8759 74.192C19.8759 73.2693 20.0412 72.5573 20.3719 72.056C20.7079 71.5547 21.1852 71.304 21.8039 71.304C22.4279 71.304 22.9026 71.5573 23.2279 72.064C23.5532 72.5707 23.7159 73.2853 23.7159 74.208C23.7159 75.1307 23.5479 75.8427 23.2119 76.344C22.8812 76.8453 22.4066 77.096 21.7879 77.096ZM21.7959 76.44C22.0359 76.44 22.2412 76.3707 22.4119 76.232C22.5879 76.088 22.7212 75.8533 22.8119 75.528C22.9079 75.2027 22.9559 74.7653 22.9559 74.216C22.9559 73.48 22.8519 72.92 22.6439 72.536C22.4412 72.152 22.1586 71.96 21.7959 71.96C21.5559 71.96 21.3479 72.032 21.1719 72.176C21.0012 72.3147 20.8679 72.5467 20.7719 72.872C20.6812 73.192 20.6359 73.6293 20.6359 74.184C20.6359 74.92 20.7372 75.48 20.9399 75.864C21.1479 76.248 21.4332 76.44 21.7959 76.44Z" fill="white" fill-opacity="0.5"/>
<path d="M11.0946 53C11.0786 52.904 11.0706 52.8053 11.0706 52.704C11.0706 52.3573 11.1293 52.048 11.2466 51.776C11.3693 51.4987 11.5266 51.248 11.7186 51.024C11.9106 50.7947 12.1133 50.584 12.3266 50.392C12.5453 50.1947 12.7479 50.008 12.9346 49.832C13.1266 49.6507 13.2839 49.4693 13.4066 49.288C13.5293 49.1067 13.5906 48.9173 13.5906 48.72C13.5906 48.496 13.5079 48.312 13.3426 48.168C13.1773 48.0187 12.9639 47.944 12.7026 47.944C12.4786 47.944 12.2733 47.9893 12.0866 48.08C11.9053 48.1653 11.7346 48.2827 11.5746 48.432L11.1746 47.944C11.3879 47.752 11.6226 47.5973 11.8786 47.48C12.1399 47.3627 12.4413 47.304 12.7826 47.304C13.0973 47.304 13.3719 47.3653 13.6066 47.488C13.8413 47.6053 14.0226 47.768 14.1506 47.976C14.2839 48.184 14.3506 48.416 14.3506 48.672C14.3506 48.928 14.2946 49.1653 14.1826 49.384C14.0706 49.6027 13.9266 49.808 13.7506 50C13.5746 50.192 13.3853 50.3787 13.1826 50.56C12.9799 50.736 12.7853 50.9173 12.5986 51.104C12.4119 51.2907 12.2519 51.4853 12.1186 51.688C11.9906 51.8907 11.9106 52.1093 11.8786 52.344H14.3426V53H11.0946ZM17.5795 53.096C16.9555 53.096 16.4808 52.8427 16.1555 52.336C15.8302 51.824 15.6675 51.1093 15.6675 50.192C15.6675 49.2693 15.8328 48.5573 16.1635 48.056C16.4995 47.5547 16.9768 47.304 17.5955 47.304C18.2195 47.304 18.6942 47.5573 19.0195 48.064C19.3448 48.5707 19.5075 49.2853 19.5075 50.208C19.5075 51.1307 19.3395 51.8427 19.0035 52.344C18.6728 52.8453 18.1982 53.096 17.5795 53.096ZM17.5875 52.44C17.8275 52.44 18.0328 52.3707 18.2035 52.232C18.3795 52.088 18.5128 51.8533 18.6035 51.528C18.6995 51.2027 18.7475 50.7653 18.7475 50.216C18.7475 49.48 18.6435 48.92 18.4355 48.536C18.2328 48.152 17.9502 47.96 17.5875 47.96C17.3475 47.96 17.1395 48.032 16.9635 48.176C16.7928 48.3147 16.6595 48.5467 16.5635 48.872C16.4728 49.192 16.4275 49.6293 16.4275 50.184C16.4275 50.92 16.5288 51.48 16.7315 51.864C16.9395 52.248 17.2248 52.44 17.5875 52.44Z" fill="white" fill-opacity="0.5"/>
<path d="M23.1653 34.096C22.8186 34.096 22.5173 34.0507 22.2613 33.96C22.0053 33.864 21.7866 33.7493 21.6053 33.616L21.9333 33.016C22.0826 33.128 22.2559 33.2267 22.4533 33.312C22.6506 33.3973 22.8906 33.44 23.1733 33.44C23.5253 33.44 23.8026 33.3467 24.0053 33.16C24.2133 32.9733 24.3173 32.7413 24.3173 32.464C24.3173 32.2667 24.2639 32.088 24.1573 31.928C24.0506 31.7627 23.8853 31.6293 23.6613 31.528C23.4426 31.4267 23.1573 31.376 22.8053 31.376H22.3573V30.792H22.7733C23.0879 30.792 23.3466 30.744 23.5493 30.648C23.7573 30.552 23.9119 30.4267 24.0133 30.272C24.1146 30.1173 24.1653 29.9547 24.1653 29.784C24.1653 29.5333 24.0693 29.3307 23.8773 29.176C23.6906 29.0213 23.4586 28.944 23.1813 28.944C22.9306 28.944 22.7066 28.9867 22.5093 29.072C22.3173 29.152 22.1599 29.2427 22.0373 29.344L21.7413 28.776C21.9013 28.6693 22.1066 28.5653 22.3573 28.464C22.6079 28.3573 22.9013 28.304 23.2373 28.304C23.5893 28.304 23.8879 28.368 24.1333 28.496C24.3786 28.624 24.5653 28.7947 24.6933 29.008C24.8266 29.216 24.8933 29.4427 24.8933 29.688C24.8933 30.0027 24.8133 30.2667 24.6533 30.48C24.4986 30.6933 24.2773 30.8693 23.9893 31.008C24.3253 31.136 24.5866 31.3253 24.7733 31.576C24.9653 31.8213 25.0613 32.1093 25.0613 32.44C25.0613 32.7173 24.9919 32.984 24.8533 33.24C24.7199 33.4907 24.5119 33.696 24.2293 33.856C23.9519 34.016 23.5973 34.096 23.1653 34.096ZM28.2822 34.096C27.6582 34.096 27.1835 33.8427 26.8582 33.336C26.5328 32.824 26.3702 32.1093 26.3702 31.192C26.3702 30.2693 26.5355 29.5573 26.8662 29.056C27.2022 28.5547 27.6795 28.304 28.2982 28.304C28.9222 28.304 29.3968 28.5573 29.7222 29.064C30.0475 29.5707 30.2102 30.2853 30.2102 31.208C30.2102 32.1307 30.0422 32.8427 29.7062 33.344C29.3755 33.8453 28.9008 34.096 28.2822 34.096ZM28.2902 33.44C28.5302 33.44 28.7355 33.3707 28.9062 33.232C29.0822 33.088 29.2155 32.8533 29.3062 32.528C29.4022 32.2027 29.4502 31.7653 29.4502 31.216C29.4502 30.48 29.3462 29.92 29.1382 29.536C28.9355 29.152 28.6528 28.96 28.2902 28.96C28.0502 28.96 27.8422 29.032 27.6662 29.176C27.4955 29.3147 27.3622 29.5467 27.2662 29.872C27.1755 30.192 27.1302 30.6293 27.1302 31.184C27.1302 31.92 27.2315 32.48 27.4342 32.864C27.6422 33.248 27.9275 33.44 28.2902 33.44Z" fill="white" fill-opacity="0.5"/>
<path d="M41.5131 20V18.808H39.1211V18.232L40.7931 14.344L41.4171 14.608L39.9051 18.152H41.5131V16.56H42.2331V18.152H42.8971V18.808H42.2331V20H41.5131ZM45.798 20.096C45.174 20.096 44.6993 19.8427 44.374 19.336C44.0487 18.824 43.886 18.1093 43.886 17.192C43.886 16.2693 44.0513 15.5573 44.382 15.056C44.718 14.5547 45.1953 14.304 45.814 14.304C46.438 14.304 46.9127 14.5573 47.238 15.064C47.5633 15.5707 47.726 16.2853 47.726 17.208C47.726 18.1307 47.558 18.8427 47.222 19.344C46.8913 19.8453 46.4167 20.096 45.798 20.096ZM45.806 19.44C46.046 19.44 46.2513 19.3707 46.422 19.232C46.598 19.088 46.7313 18.8533 46.822 18.528C46.918 18.2027 46.966 17.7653 46.966 17.216C46.966 16.48 46.862 15.92 46.654 15.536C46.4513 15.152 46.1687 14.96 45.806 14.96C45.566 14.96 45.358 15.032 45.182 15.176C45.0113 15.3147 44.878 15.5467 44.782 15.872C44.6913 16.192 44.646 16.6293 44.646 17.184C44.646 17.92 44.7473 18.48 44.95 18.864C45.158 19.248 45.4433 19.44 45.806 19.44Z" fill="white" fill-opacity="0.5"/>
<path d="M58.7627 15.096C58.4374 15.096 58.1574 15.0613 57.9227 14.992C57.688 14.9173 57.4747 14.8133 57.2827 14.68L57.6587 14.064C57.808 14.1707 57.9734 14.2613 58.1547 14.336C58.336 14.4053 58.5414 14.44 58.7707 14.44C59.128 14.44 59.416 14.3387 59.6347 14.136C59.8534 13.928 59.9627 13.664 59.9627 13.344C59.9627 13.0133 59.848 12.744 59.6187 12.536C59.3947 12.3227 59.072 12.216 58.6507 12.216H57.6587V9.4H60.4267V10.048H58.3387V11.568H58.7387C59.1547 11.568 59.5094 11.64 59.8027 11.784C60.1014 11.928 60.328 12.128 60.4827 12.384C60.6427 12.64 60.7227 12.9333 60.7227 13.264C60.7227 13.6213 60.64 13.9387 60.4747 14.216C60.3147 14.488 60.088 14.704 59.7947 14.864C59.5014 15.0187 59.1574 15.096 58.7627 15.096ZM63.7916 15.096C63.1676 15.096 62.6929 14.8427 62.3676 14.336C62.0422 13.824 61.8796 13.1093 61.8796 12.192C61.8796 11.2693 62.0449 10.5573 62.3756 10.056C62.7116 9.55467 63.1889 9.304 63.8076 9.304C64.4316 9.304 64.9062 9.55733 65.2316 10.064C65.5569 10.5707 65.7196 11.2853 65.7196 12.208C65.7196 13.1307 65.5516 13.8427 65.2156 14.344C64.8849 14.8453 64.4102 15.096 63.7916 15.096ZM63.7996 14.44C64.0396 14.44 64.2449 14.3707 64.4156 14.232C64.5916 14.088 64.7249 13.8533 64.8156 13.528C64.9116 13.2027 64.9596 12.7653 64.9596 12.216C64.9596 11.48 64.8556 10.92 64.6476 10.536C64.4449 10.152 64.1622 9.96 63.7996 9.96C63.5596 9.96 63.3516 10.032 63.1756 10.176C63.0049 10.3147 62.8716 10.5467 62.7756 10.872C62.6849 11.192 62.6396 11.6293 62.6396 12.184C62.6396 12.92 62.7409 13.48 62.9436 13.864C63.1516 14.248 63.4369 14.44 63.7996 14.44Z" fill="white" fill-opacity="0.5"/>
<path d="M81.4099 20.096C81.0739 20.096 80.7619 20.0133 80.4739 19.848C80.1913 19.6773 79.9646 19.416 79.7939 19.064C79.6233 18.712 79.5379 18.2667 79.5379 17.728C79.5379 17.2747 79.5966 16.848 79.7139 16.448C79.8366 16.0427 80.0179 15.6853 80.2579 15.376C80.5033 15.0667 80.8046 14.824 81.1619 14.648C81.5193 14.472 81.9353 14.384 82.4099 14.384C82.4579 14.384 82.5086 14.3867 82.5619 14.392C82.6206 14.392 82.6713 14.3947 82.7139 14.4V15.056C82.6713 15.0507 82.6233 15.048 82.5699 15.048C82.5166 15.0427 82.4659 15.04 82.4179 15.04C81.8366 15.04 81.3566 15.2187 80.9779 15.576C80.6046 15.928 80.3753 16.4133 80.2899 17.032C80.4393 16.888 80.6313 16.7573 80.8659 16.64C81.1006 16.5173 81.3673 16.456 81.6659 16.456C81.9646 16.456 82.2313 16.5253 82.4659 16.664C82.7006 16.8027 82.8846 16.9973 83.0179 17.248C83.1566 17.4933 83.2259 17.7867 83.2259 18.128C83.2259 18.5173 83.1459 18.8613 82.9859 19.16C82.8313 19.4533 82.6179 19.6827 82.3459 19.848C82.0739 20.0133 81.7619 20.096 81.4099 20.096ZM81.4419 19.44C81.7619 19.44 82.0179 19.3227 82.2099 19.088C82.4073 18.8533 82.5059 18.5627 82.5059 18.216C82.5059 17.8693 82.4126 17.5893 82.2259 17.376C82.0393 17.1627 81.7913 17.056 81.4819 17.056C81.2526 17.056 81.0339 17.112 80.8259 17.224C80.6179 17.336 80.4339 17.4853 80.2739 17.672V17.848C80.2846 18.3493 80.3993 18.7413 80.6179 19.024C80.8419 19.3013 81.1166 19.44 81.4419 19.44ZM86.1668 20.096C85.5428 20.096 85.0681 19.8427 84.7428 19.336C84.4175 18.824 84.2548 18.1093 84.2548 17.192C84.2548 16.2693 84.4201 15.5573 84.7508 15.056C85.0868 14.5547 85.5641 14.304 86.1828 14.304C86.8068 14.304 87.2815 14.5573 87.6068 15.064C87.9321 15.5707 88.0948 16.2853 88.0948 17.208C88.0948 18.1307 87.9268 18.8427 87.5908 19.344C87.2601 19.8453 86.7855 20.096 86.1668 20.096ZM86.1748 19.44C86.4148 19.44 86.6201 19.3707 86.7908 19.232C86.9668 19.088 87.1001 18.8533 87.1908 18.528C87.2868 18.2027 87.3348 17.7653 87.3348 17.216C87.3348 16.48 87.2308 15.92 87.0228 15.536C86.8201 15.152 86.5375 14.96 86.1748 14.96C85.9348 14.96 85.7268 15.032 85.5508 15.176C85.3801 15.3147 85.2468 15.5467 85.1508 15.872C85.0601 16.192 85.0148 16.6293 85.0148 17.184C85.0148 17.92 85.1161 18.48 85.3188 18.864C85.5268 19.248 85.8121 19.44 86.1748 19.44Z" fill="white" fill-opacity="0.5"/>
<path d="M93.9927 35C93.9927 34.3867 94.0327 33.8427 94.1127 33.368C94.198 32.888 94.318 32.456 94.4727 32.072C94.6327 31.688 94.83 31.3333 95.0647 31.008C95.2993 30.6827 95.5687 30.3653 95.8727 30.056H93.1767V29.4H96.7287V29.976C96.3607 30.3333 96.054 30.6827 95.8087 31.024C95.5633 31.36 95.366 31.7173 95.2167 32.096C95.0673 32.4693 94.9607 32.8933 94.8967 33.368C94.8327 33.8373 94.8007 34.3813 94.8007 35H93.9927ZM99.6216 35.096C98.9976 35.096 98.5229 34.8427 98.1976 34.336C97.8722 33.824 97.7096 33.1093 97.7096 32.192C97.7096 31.2693 97.8749 30.5573 98.2056 30.056C98.5416 29.5547 99.0189 29.304 99.6376 29.304C100.262 29.304 100.736 29.5573 101.062 30.064C101.387 30.5707 101.55 31.2853 101.55 32.208C101.55 33.1307 101.382 33.8427 101.046 34.344C100.715 34.8453 100.24 35.096 99.6216 35.096ZM99.6296 34.44C99.8696 34.44 100.075 34.3707 100.246 34.232C100.422 34.088 100.555 33.8533 100.646 33.528C100.742 33.2027 100.79 32.7653 100.79 32.216C100.79 31.48 100.686 30.92 100.478 30.536C100.275 30.152 99.9922 29.96 99.6296 29.96C99.3896 29.96 99.1816 30.032 99.0056 30.176C98.8349 30.3147 98.7016 30.5467 98.6056 30.872C98.5149 31.192 98.4696 31.6293 98.4696 32.184C98.4696 32.92 98.5709 33.48 98.7736 33.864C98.9816 34.248 99.2669 34.44 99.6296 34.44Z" fill="white" fill-opacity="0.5"/>
<path d="M103.627 55.096C103.221 55.096 102.869 55.0267 102.571 54.888C102.272 54.7493 102.04 54.5627 101.875 54.328C101.715 54.088 101.635 53.824 101.635 53.536C101.635 53.1893 101.728 52.888 101.915 52.632C102.107 52.376 102.405 52.16 102.811 51.984C102.528 51.8293 102.309 51.6507 102.155 51.448C102.005 51.24 101.931 50.984 101.931 50.68C101.931 50.408 102.003 50.1707 102.147 49.968C102.291 49.76 102.485 49.5973 102.731 49.48C102.981 49.3627 103.259 49.304 103.563 49.304C103.893 49.304 104.184 49.3653 104.435 49.488C104.685 49.6053 104.88 49.768 105.019 49.976C105.163 50.184 105.235 50.416 105.235 50.672C105.235 50.9973 105.152 51.2613 104.987 51.464C104.821 51.6667 104.6 51.8373 104.323 51.976C104.717 52.1413 105.019 52.3493 105.227 52.6C105.435 52.8453 105.539 53.1413 105.539 53.488C105.539 53.808 105.456 54.0907 105.291 54.336C105.125 54.576 104.899 54.7627 104.611 54.896C104.323 55.0293 103.995 55.096 103.627 55.096ZM103.667 51.712C103.901 51.632 104.104 51.5093 104.275 51.344C104.451 51.1787 104.539 50.9787 104.539 50.744C104.539 50.4987 104.445 50.296 104.259 50.136C104.072 49.976 103.84 49.896 103.563 49.896C103.291 49.896 103.067 49.968 102.891 50.112C102.715 50.2507 102.627 50.4347 102.627 50.664C102.627 50.8933 102.72 51.1013 102.907 51.288C103.099 51.4747 103.352 51.616 103.667 51.712ZM103.635 54.456C103.976 54.456 104.256 54.368 104.475 54.192C104.693 54.0107 104.803 53.7813 104.803 53.504C104.803 53.248 104.688 53.0187 104.459 52.816C104.235 52.6133 103.923 52.44 103.523 52.296C103.32 52.344 103.131 52.4187 102.955 52.52C102.779 52.6213 102.637 52.7467 102.531 52.896C102.424 53.0453 102.371 53.216 102.371 53.408C102.371 53.6053 102.424 53.784 102.531 53.944C102.643 54.104 102.795 54.2293 102.987 54.32C103.179 54.4107 103.395 54.456 103.635 54.456ZM108.375 55.096C107.751 55.096 107.277 54.8427 106.951 54.336C106.626 53.824 106.463 53.1093 106.463 52.192C106.463 51.2693 106.629 50.5573 106.959 50.056C107.295 49.5547 107.773 49.304 108.391 49.304C109.015 49.304 109.49 49.5573 109.815 50.064C110.141 50.5707 110.303 51.2853 110.303 52.208C110.303 53.1307 110.135 53.8427 109.799 54.344C109.469 54.8453 108.994 55.096 108.375 55.096ZM108.383 54.44C108.623 54.44 108.829 54.3707 108.999 54.232C109.175 54.088 109.309 53.8533 109.399 53.528C109.495 53.2027 109.543 52.7653 109.543 52.216C109.543 51.48 109.439 50.92 109.231 50.536C109.029 50.152 108.746 49.96 108.383 49.96C108.143 49.96 107.935 50.032 107.759 50.176C107.589 50.3147 107.455 50.5467 107.359 50.872C107.269 51.192 107.223 51.6293 107.223 52.184C107.223 52.92 107.325 53.48 107.527 53.864C107.735 54.248 108.021 54.44 108.383 54.44Z" fill="white" fill-opacity="0.5"/>
<path d="M101.524 76.096C101.214 76.096 100.937 76.0427 100.692 75.936C100.446 75.824 100.222 75.6693 100.02 75.472L100.492 74.936C100.812 75.272 101.169 75.44 101.564 75.44C101.782 75.44 101.985 75.368 102.172 75.224C102.358 75.0747 102.508 74.8427 102.62 74.528C102.737 74.2133 102.796 73.808 102.796 73.312C102.63 73.4613 102.446 73.5867 102.244 73.688C102.041 73.7893 101.822 73.84 101.588 73.84C101.305 73.84 101.036 73.776 100.78 73.648C100.529 73.5147 100.324 73.3227 100.164 73.072C100.009 72.816 99.9318 72.5013 99.9318 72.128C99.9318 71.792 100.006 71.4853 100.156 71.208C100.31 70.9307 100.524 70.712 100.796 70.552C101.068 70.3867 101.382 70.304 101.74 70.304C102.017 70.304 102.254 70.3467 102.452 70.432C102.649 70.5173 102.814 70.6293 102.948 70.768C103.076 70.9013 103.182 71.0587 103.268 71.24C103.358 71.416 103.425 71.6507 103.468 71.944C103.51 72.232 103.532 72.608 103.532 73.072C103.532 73.7813 103.444 74.36 103.268 74.808C103.092 75.2507 102.852 75.576 102.548 75.784C102.249 75.992 101.908 76.096 101.524 76.096ZM101.708 73.248C101.91 73.248 102.105 73.1973 102.292 73.096C102.484 72.9947 102.652 72.872 102.796 72.728V72.488C102.796 71.9813 102.697 71.5973 102.5 71.336C102.308 71.0747 102.046 70.944 101.716 70.944C101.412 70.944 101.153 71.0507 100.94 71.264C100.732 71.472 100.628 71.7493 100.628 72.096C100.628 72.336 100.678 72.544 100.78 72.72C100.881 72.8907 101.012 73.0213 101.172 73.112C101.337 73.2027 101.516 73.248 101.708 73.248ZM106.601 76.096C105.977 76.096 105.502 75.8427 105.177 75.336C104.851 74.824 104.689 74.1093 104.689 73.192C104.689 72.2693 104.854 71.5573 105.185 71.056C105.521 70.5547 105.998 70.304 106.617 70.304C107.241 70.304 107.715 70.5573 108.041 71.064C108.366 71.5707 108.529 72.2853 108.529 73.208C108.529 74.1307 108.361 74.8427 108.025 75.344C107.694 75.8453 107.219 76.096 106.601 76.096ZM106.609 75.44C106.849 75.44 107.054 75.3707 107.225 75.232C107.401 75.088 107.534 74.8533 107.625 74.528C107.721 74.2027 107.769 73.7653 107.769 73.216C107.769 72.48 107.665 71.92 107.457 71.536C107.254 71.152 106.971 70.96 106.609 70.96C106.369 70.96 106.161 71.032 105.985 71.176C105.814 71.3147 105.681 71.5467 105.585 71.872C105.494 72.192 105.449 72.6293 105.449 73.184C105.449 73.92 105.55 74.48 105.753 74.864C105.961 75.248 106.246 75.44 106.609 75.44Z" fill="white" fill-opacity="0.5"/>
<path d="M88.9176 96V95.36H90.0616V91.32L88.9896 92.128L88.5976 91.592L90.2536 90.4H90.7816V95.36H91.7336V96H88.9176ZM94.9545 96.096C94.3305 96.096 93.8558 95.8427 93.5305 95.336C93.2052 94.824 93.0425 94.1093 93.0425 93.192C93.0425 92.2693 93.2078 91.5573 93.5385 91.056C93.8745 90.5547 94.3518 90.304 94.9705 90.304C95.5945 90.304 96.0692 90.5573 96.3945 91.064C96.7198 91.5707 96.8825 92.2853 96.8825 93.208C96.8825 94.1307 96.7145 94.8427 96.3785 95.344C96.0478 95.8453 95.5732 96.096 94.9545 96.096ZM94.9625 95.44C95.2025 95.44 95.4078 95.3707 95.5785 95.232C95.7545 95.088 95.8878 94.8533 95.9785 94.528C96.0745 94.2027 96.1225 93.7653 96.1225 93.216C96.1225 92.48 96.0185 91.92 95.8105 91.536C95.6078 91.152 95.3252 90.96 94.9625 90.96C94.7225 90.96 94.5145 91.032 94.3385 91.176C94.1678 91.3147 94.0345 91.5467 93.9385 91.872C93.8478 92.192 93.8025 92.6293 93.8025 93.184C93.8025 93.92 93.9038 94.48 94.1065 94.864C94.3145 95.248 94.5998 95.44 94.9625 95.44ZM99.7514 96.096C99.1274 96.096 98.6527 95.8427 98.3274 95.336C98.002 94.824 97.8394 94.1093 97.8394 93.192C97.8394 92.2693 98.0047 91.5573 98.3354 91.056C98.6714 90.5547 99.1487 90.304 99.7674 90.304C100.391 90.304 100.866 90.5573 101.191 91.064C101.517 91.5707 101.679 92.2853 101.679 93.208C101.679 94.1307 101.511 94.8427 101.175 95.344C100.845 95.8453 100.37 96.096 99.7514 96.096ZM99.7594 95.44C99.9994 95.44 100.205 95.3707 100.375 95.232C100.551 95.088 100.685 94.8533 100.775 94.528C100.871 94.2027 100.919 93.7653 100.919 93.216C100.919 92.48 100.815 91.92 100.607 91.536C100.405 91.152 100.122 90.96 99.7594 90.96C99.5194 90.96 99.3114 91.032 99.1354 91.176C98.9647 91.3147 98.8314 91.5467 98.7354 91.872C98.6447 92.192 98.5994 92.6293 98.5994 93.184C98.5994 93.92 98.7007 94.48 98.9034 94.864C99.1114 95.248 99.3967 95.44 99.7594 95.44Z" fill="white" fill-opacity="0.5"/>
</g>
<defs>
<filter id="filter0_d_1006_24073" x="7.07031" y="9.30371" width="107.234" height="95.0527" filterUnits="userSpaceOnUse" color-interpolation-filters="sRGB">
<feFlood flood-opacity="0" result="BackgroundImageFix"/>
<feColorMatrix in="SourceAlpha" type="matrix" values="0 0 0 0 0 0 0 0 0 0 0 0 0 0 0 0 0 0 127 0" result="hardAlpha"/>
<feOffset dy="4"/>
<feGaussianBlur stdDeviation="2"/>
<feComposite in2="hardAlpha" operator="out"/>
<feColorMatrix type="matrix" values="0 0 0 0 0 0 0 0 0 0 0 0 0 0 0 0 0 0 0.25 0"/>
<feBlend mode="normal" in2="BackgroundImageFix" result="effect1_dropShadow_1006_24073"/>
<feBlend mode="normal" in="SourceGraphic" in2="effect1_dropShadow_1006_24073" result="shape"/>
</filter>
</defs>
</svg>
