<svg width="15" height="14" viewBox="0 0 15 14" fill="none" xmlns="http://www.w3.org/2000/svg">
<path d="M5.75033 11.0833C2.83366 11.9583 2.83366 9.62498 1.66699 9.33332M9.83366 12.8333V10.5758C9.85554 10.2977 9.81796 10.018 9.72342 9.75553C9.62887 9.49302 9.47953 9.25365 9.28533 9.05332C11.117 8.84915 13.042 8.15498 13.042 4.96998C13.0418 4.15555 12.7286 3.37235 12.167 2.78248C12.4329 2.06995 12.4141 1.28235 12.1145 0.583317C12.1145 0.583317 11.4262 0.379151 9.83366 1.44665C8.49666 1.0843 7.08732 1.0843 5.75033 1.44665C4.15783 0.379151 3.46949 0.583317 3.46949 0.583317C3.16988 1.28235 3.15108 2.06995 3.41699 2.78248C2.85123 3.37673 2.53763 4.167 2.54199 4.98748C2.54199 8.14915 4.46699 8.84332 6.29866 9.07082C6.10674 9.26913 5.95873 9.50564 5.86426 9.76494C5.76978 10.0242 5.73096 10.3005 5.75033 10.5758V12.8333" stroke="white" stroke-linecap="round" stroke-linejoin="round"/>
</svg>
