<svg width="18" height="10" stroke="#002766" viewBox="0 0 18 10" fill="#002766" xmlns="http://www.w3.org/2000/svg">
<path d="M1.87292 9.08165C1.58266 9.08165 1.34748 8.84607 1.34772 8.55557C1.34784 8.43135 1.39198 8.31125 1.47244 8.21629L6.06778 2.91755L10.9556 5.36489L15.626 1.34429C15.8483 1.15721 16.1798 1.18557 16.3669 1.40755C16.554 1.62965 16.5258 1.96135 16.3035 2.14843L11.1202 6.60185L6.35058 4.21045L2.2739 8.89585C2.1742 9.01391 2.0274 9.08217 1.87292 9.08165ZM12.1539 5.78807C12.1539 6.51383 11.5654 7.10201 10.8399 7.10201C10.1142 7.10201 9.52601 6.51383 9.52601 5.78807C9.52601 5.06233 10.1142 4.47413 10.8399 4.47413C11.5654 4.47413 12.1539 5.06233 12.1539 5.78807ZM17.4096 1.58347C17.4096 2.30909 16.8212 2.89741 16.0957 2.89741C15.3699 2.89741 14.7818 2.30909 14.7818 1.58347C14.7818 0.857712 15.3699 0.269531 16.0957 0.269531C16.8212 0.269531 17.4096 0.857732 17.4096 1.58347ZM7.42354 3.68577C7.42354 4.41139 6.83523 4.99971 6.10961 4.99971C5.38386 4.99971 4.79566 4.41139 4.79566 3.68577C4.79566 2.96001 5.38386 2.37183 6.10961 2.37183C6.83523 2.37183 7.42354 2.96003 7.42354 3.68577ZM3.21894 8.41597C3.21894 9.14171 2.63062 9.72989 1.905 9.72989C1.17926 9.72989 0.591064 9.14171 0.591064 8.41597C0.591064 7.69023 1.17926 7.10203 1.905 7.10203C2.63062 7.10201 3.21894 7.69023 3.21894 8.41597Z" fill="white"/>
</svg>
