<svg width="88" height="21" viewBox="0 0 88 21" fill="none" xmlns="http://www.w3.org/2000/svg">
<path d="M16.3246 4.24609C14.2594 4.24609 12.3301 5.30096 11.2431 7.00496C10.0747 5.16572 8.33557 4.24609 6.10735 4.24609C4.63999 4.24609 3.25414 4.8141 1.97699 5.89601C0.67267 6.97791 0.0205078 8.24916 0.0205078 9.76383V15.3627C0.0205078 16.0119 0.373762 16.3635 1.02592 16.3635C1.65091 16.3635 1.97699 16.0119 1.97699 15.3627V9.79088C2.11286 8.73602 2.57481 7.89754 3.33566 7.1943C4.15087 6.49106 5.04759 6.16648 6.10735 6.16648C7.24863 6.16648 8.1997 6.54515 9.01491 7.32954C9.83011 8.08687 10.2377 9.03354 10.2377 10.1425L10.2649 15.3357C10.2649 15.9578 10.6181 16.3364 11.216 16.3364C11.8681 16.3364 12.2214 15.9848 12.2214 15.3357V10.1425V9.76383C12.3572 8.70897 12.8192 7.87049 13.58 7.16725C14.3409 6.49105 15.2648 6.13943 16.3246 6.13943C17.4658 6.13943 18.4441 6.54515 19.2593 7.30249C20.0745 8.08687 20.4821 9.03354 20.4821 10.1695V15.3627C20.4821 15.9848 20.8353 16.3094 21.4875 16.3094C22.1125 16.3094 22.4386 15.9578 22.4386 15.3627V10.1425C22.4386 8.49259 21.8136 7.05906 20.618 5.92305C19.4495 4.8141 18.0093 4.24609 16.3246 4.24609Z" fill="#414141"/>
<path d="M30.4275 4.21973C28.7427 4.21973 27.2754 4.81477 26.1069 6.00487C24.9113 7.19497 24.3135 8.62851 24.3135 10.3055C24.3135 11.9824 24.9113 13.443 26.1069 14.6061C27.3026 15.7962 28.7427 16.3912 30.4275 16.3912C32.0307 16.3912 33.4166 15.8773 34.585 14.8765L34.5578 15.5257C34.5307 15.8503 34.6122 16.0937 34.7752 16.256C34.9383 16.4453 35.21 16.5264 35.5361 16.5264C36.1883 16.5264 36.5415 16.1748 36.5415 15.5257V10.4948C36.5415 8.81784 35.9437 7.33022 34.7481 6.11307C33.5796 4.84182 32.1122 4.21973 30.4275 4.21973ZM34.585 10.4677C34.585 11.6038 34.1774 12.5775 33.3622 13.3348C32.547 14.0921 31.5959 14.4438 30.4275 14.4438C29.259 14.4438 28.2536 14.038 27.4656 13.2537C26.6776 12.4693 26.27 11.4685 26.27 10.3055C26.27 9.16946 26.6776 8.19574 27.4928 7.38431C28.308 6.57288 29.2862 6.16716 30.4275 6.16716C31.5959 6.16716 32.547 6.57288 33.3622 7.4384C34.1774 8.33098 34.585 9.3047 34.585 10.4677Z" fill="#414141"/>
<path d="M49.6391 4.21973C48.987 4.21973 48.6337 4.57135 48.6337 5.22049V10.9005C48.3891 12.9832 46.65 14.4979 44.5305 14.4979C43.3892 14.4979 42.3838 14.1192 41.5686 13.3619C40.7806 12.6045 40.373 11.6308 40.373 10.4677V5.1664C40.373 4.5443 40.0197 4.21973 39.3676 4.21973C38.7426 4.21973 38.4165 4.57135 38.4165 5.1664V10.4948C38.4165 12.1447 39.0143 13.5782 40.2099 14.7142C41.1338 15.6068 42.248 16.1748 43.5251 16.3642V20.0156C43.5251 20.5025 43.9055 20.8811 44.3947 20.8811H44.612C45.1012 20.8811 45.4816 20.5025 45.4816 20.0156V16.3642C46.6229 16.1748 47.6826 15.6609 48.6881 14.8224C49.9652 13.7405 50.5902 12.4422 50.5902 10.9817V5.22049C50.5902 4.57135 50.2369 4.21973 49.6391 4.21973Z" fill="#414141"/>
<path d="M58.6062 4.21973C56.9215 4.21973 55.4541 4.81477 54.2856 6.00487C53.09 7.19497 52.4922 8.62851 52.4922 10.3055C52.4922 11.9824 53.09 13.443 54.2856 14.6061C55.4813 15.7962 56.9215 16.3912 58.6062 16.3912C60.2094 16.3912 61.5953 15.8773 62.7637 14.8765L62.7366 15.5257C62.7094 15.8503 62.7909 16.0937 62.954 16.256C63.117 16.4453 63.3887 16.5264 63.7148 16.5264C64.367 16.5264 64.7202 16.1748 64.7202 15.5257V10.4948C64.7202 8.81784 64.1224 7.33022 62.9268 6.11307C61.7312 4.84182 60.291 4.21973 58.6062 4.21973ZM62.7637 10.4677C62.7637 11.6038 62.3561 12.5775 61.5409 13.3348C60.7257 14.0921 59.7747 14.4438 58.6062 14.4438C57.4378 14.4438 56.4323 14.038 55.6443 13.2537C54.8563 12.4693 54.4487 11.4685 54.4487 10.3055C54.4487 9.16946 54.8563 8.19574 55.6715 7.38431C56.4867 6.57288 57.4649 6.16716 58.6062 6.16716C59.7747 6.16716 60.7257 6.57288 61.5409 7.4384C62.3561 8.33098 62.7637 9.3047 62.7637 10.4677Z" fill="#414141"/>
<path d="M77.8997 4.21973C76.2149 4.21973 74.7475 4.81477 73.5791 6.00487C72.3835 7.19497 71.7856 8.62851 71.7856 10.3055C71.7856 11.9824 72.3835 13.443 73.5791 14.6061C74.7747 15.7962 76.2149 16.3912 77.8997 16.3912C79.5029 16.3912 80.8887 15.8773 82.0572 14.8765L82.03 15.5257C82.0028 15.8503 82.0844 16.0937 82.2474 16.256C82.4104 16.4453 82.6822 16.5264 83.0082 16.5264C83.6604 16.5264 84.0137 16.1748 84.0137 15.5257V10.4948C84.0137 8.81784 83.4158 7.33022 82.2202 6.11307C81.0518 4.84182 79.5844 4.21973 77.8997 4.21973ZM82.0572 10.4677C82.0572 11.6038 81.6496 12.5775 80.8344 13.3348C80.0192 14.0921 79.0681 14.4438 77.8997 14.4438C76.7312 14.4438 75.7258 14.038 74.9378 13.2537C74.1497 12.4693 73.7421 11.4685 73.7421 10.3055C73.7421 9.16946 74.1497 8.19574 74.9649 7.38431C75.7801 6.57288 76.7584 6.16716 77.8997 6.16716C79.0681 6.16716 80.0192 6.57288 80.8344 7.4384C81.6496 8.33098 82.0572 9.3047 82.0572 10.4677Z" fill="#414141"/>
<path d="M86.8668 2.29906C87.5733 2.29906 87.9809 1.86629 87.9809 1.13601C87.9809 0.432765 87.5733 0 86.8668 0C86.1603 0 85.7527 0.432765 85.7527 1.16305C85.7255 1.86629 86.1603 2.29906 86.8668 2.29906Z" fill="#414141"/>
<path d="M68.8509 13.9023C68.2259 13.9023 67.7368 14.4162 67.7368 15.0113C67.7368 15.6334 68.2531 16.1202 68.8509 16.1202C69.4487 16.1202 69.965 15.6063 69.965 15.0113C69.9922 14.3892 69.4759 13.9023 68.8509 13.9023Z" fill="#414141"/>
<path d="M86.9751 4.19238H86.7577C86.2686 4.19238 85.8882 4.70629 85.8882 5.32839V15.3631C85.8882 15.9852 86.2958 16.4991 86.7577 16.4991H86.9751C87.4642 16.4991 87.8447 15.9852 87.8447 15.3631V5.32839C87.8447 4.70629 87.4642 4.19238 86.9751 4.19238Z" fill="#414141"/>
</svg>
