<svg width="49" height="36" viewBox="0 0 49 36" fill="none" xmlns="http://www.w3.org/2000/svg">
<path d="M18 36C27.9411 36 36 27.9411 36 18C36 8.05887 27.9411 0 18 0C8.05887 0 0 8.05887 0 18C0 27.9411 8.05887 36 18 36Z" fill="#828282"/>
<path d="M18 36C27.9411 36 36 27.9411 36 18C36 8.05887 27.9411 0 18 0C8.05887 0 0 8.05887 0 18C0 27.9411 8.05887 36 18 36Z" fill="url(#paint0_linear_2421_12830)"/>
<g filter="url(#filter0_d_2421_12830)">
<path d="M24.7267 18C24.7267 21.7156 21.7156 24.7268 17.9999 24.7268C14.2843 24.7268 11.2732 21.7156 11.2732 18C11.2732 14.2844 14.2855 11.2733 17.9999 11.2733C21.7144 11.2733 24.7267 14.2856 24.7267 18Z" fill="white"/>
</g>
<path fill-rule="evenodd" clip-rule="evenodd" d="M16.7889 3.70609C16.7889 3.46649 16.9832 3.27338 17.2217 3.27338H18.9954C19.235 3.27338 19.4281 3.46768 19.4281 3.70609V5.47987C19.4281 5.71947 19.2338 5.91258 18.9954 5.91258H18.6164V15.5563C18.6164 16.0069 19.1611 16.2334 19.4806 15.9151L24.2405 11.1552V9.66993C24.2405 9.43033 24.4348 9.23722 24.6732 9.23722H26.4469C26.6866 9.23722 26.8797 9.43152 26.8797 9.66993V11.4437C26.8797 11.6833 26.6854 11.8764 26.4469 11.8764H24.9509L20.1958 16.6315C19.8775 16.9498 20.1028 17.4958 20.5546 17.4958H30.0899V17.1155C30.0899 16.8759 30.2842 16.6828 30.5226 16.6828H32.2964C32.536 16.6828 32.7291 16.8771 32.7291 17.1155V18.8893C32.7291 19.1289 32.5348 19.322 32.2964 19.322H30.5226C30.283 19.322 30.0899 19.1277 30.0899 18.8893V18.509H20.5546C20.104 18.509 19.8775 19.0538 20.1958 19.3732L24.908 24.0854H26.4458C26.6854 24.0854 26.8785 24.2797 26.8785 24.5181V26.2919C26.8785 26.5315 26.6842 26.7246 26.4458 26.7246H24.672C24.4324 26.7246 24.2393 26.5303 24.2393 26.2919V24.8483L19.4794 20.0885C19.1611 19.7702 18.6152 19.9955 18.6152 20.4473V30.0838H18.9942C19.2338 30.0838 19.4269 30.2781 19.4269 30.5166V32.2903C19.4269 32.5299 19.2326 32.723 18.9942 32.723H17.2205C16.9809 32.723 16.7877 32.5287 16.7877 32.2903V30.5166C16.7877 30.277 16.982 30.0838 17.2205 30.0838H17.6019V20.4473C17.6019 19.9967 17.0571 19.7702 16.7377 20.0885L11.9754 24.8507V26.2919C11.9754 26.5315 11.7811 26.7246 11.5427 26.7246H9.76893C9.52933 26.7246 9.33622 26.5303 9.33622 26.2919V24.5181C9.33622 24.2785 9.53052 24.0854 9.76893 24.0854H11.3091L16.0213 19.3732C16.3395 19.055 16.1142 18.509 15.6624 18.509H5.91264V18.8893C5.91264 19.1289 5.71834 19.322 5.47993 19.322H3.70615C3.46655 19.322 3.27344 19.1277 3.27344 18.8893V17.1155C3.27344 16.8759 3.46774 16.6828 3.70615 16.6828H5.47993C5.71953 16.6828 5.91264 16.8771 5.91264 17.1155V17.4958H15.6648C16.1154 17.4958 16.3419 16.951 16.0236 16.6315L11.2685 11.8764H9.77013C9.53052 11.8764 9.33741 11.6821 9.33741 11.4437V9.66993C9.33741 9.43033 9.53172 9.23722 9.77013 9.23722H11.5439C11.7835 9.23722 11.9766 9.43152 11.9766 9.66993V11.1528L16.7389 15.9151C17.0571 16.2334 17.6031 16.0081 17.6031 15.5563V5.91139H17.2217C16.982 5.91139 16.7889 5.71709 16.7889 5.47867V3.7049V3.70609Z" fill="white"/>
<path d="M21.2556 17.8283C20.4426 17.584 19.7131 17.2061 19.1838 16.5207C18.7797 15.9973 18.5043 15.4121 18.341 14.7743C18.2743 14.5144 18.2147 14.2522 18.1503 13.9923C18.1312 13.9148 18.0895 13.854 17.9965 13.8564C17.9095 13.8576 17.8749 13.9148 17.8523 13.9864C17.8451 14.0102 17.8427 14.0352 17.8368 14.0591C17.7092 14.6432 17.5495 15.2177 17.286 15.7601C16.8843 16.591 16.2776 17.2121 15.4205 17.5864C15.1761 17.6936 14.9234 17.7771 14.6707 17.8581C14.598 17.8808 14.5562 17.9261 14.5527 17.9952C14.5491 18.062 14.5992 18.1037 14.6564 18.1299C14.6921 18.1466 14.7327 18.1538 14.7708 18.1657C15.2345 18.3087 15.6768 18.4935 16.0761 18.7724C16.8366 19.3053 17.2777 20.0563 17.5626 20.9134C17.677 21.2591 17.77 21.6095 17.838 21.9671C17.8558 22.0601 17.8904 22.1412 18.0108 22.146C18.1109 22.134 18.1455 22.0577 18.1622 21.9707C18.2242 21.6429 18.3064 21.3199 18.409 21.0016C18.614 20.365 18.8977 19.769 19.359 19.2695C19.8776 18.7069 20.532 18.3755 21.2592 18.1633C21.3474 18.1371 21.4487 18.1132 21.4499 18.0024C21.4523 17.8844 21.3521 17.8593 21.2568 17.8295L21.2556 17.8283Z" fill="#C0C0C0"/>
<path d="M21.2556 17.8283C20.4426 17.584 19.7131 17.2061 19.1838 16.5207C18.7797 15.9973 18.5043 15.4121 18.341 14.7743C18.2743 14.5144 18.2147 14.2522 18.1503 13.9923C18.1312 13.9148 18.0895 13.854 17.9965 13.8564C17.9095 13.8576 17.8749 13.9148 17.8523 13.9864C17.8451 14.0102 17.8427 14.0352 17.8368 14.0591C17.7092 14.6432 17.5495 15.2177 17.286 15.7601C16.8843 16.591 16.2776 17.2121 15.4205 17.5864C15.1761 17.6936 14.9234 17.7771 14.6707 17.8581C14.598 17.8808 14.5562 17.9261 14.5527 17.9952C14.5491 18.062 14.5992 18.1037 14.6564 18.1299C14.6921 18.1466 14.7327 18.1538 14.7708 18.1657C15.2345 18.3087 15.6768 18.4935 16.0761 18.7724C16.8366 19.3053 17.2777 20.0563 17.5626 20.9134C17.677 21.2591 17.77 21.6095 17.838 21.9671C17.8558 22.0601 17.8904 22.1412 18.0108 22.146C18.1109 22.134 18.1455 22.0577 18.1622 21.9707C18.2242 21.6429 18.3064 21.3199 18.409 21.0016C18.614 20.365 18.8977 19.769 19.359 19.2695C19.8776 18.7069 20.532 18.3755 21.2592 18.1633C21.3474 18.1371 21.4487 18.1132 21.4499 18.0024C21.4523 17.8844 21.3521 17.8593 21.2568 17.8295L21.2556 17.8283Z" fill="url(#paint1_linear_2421_12830)"/>
<defs>
<filter id="filter0_d_2421_12830" x="-12.7268" y="-12.7267" width="61.4536" height="61.4535" filterUnits="userSpaceOnUse" color-interpolation-filters="sRGB">
<feFlood flood-opacity="0" result="BackgroundImageFix"/>
<feColorMatrix in="SourceAlpha" type="matrix" values="0 0 0 0 0 0 0 0 0 0 0 0 0 0 0 0 0 0 127 0" result="hardAlpha"/>
<feOffset/>
<feGaussianBlur stdDeviation="12"/>
<feColorMatrix type="matrix" values="0 0 0 0 1 0 0 0 0 1 0 0 0 0 1 0 0 0 0.75 0"/>
<feBlend mode="normal" in2="BackgroundImageFix" result="effect1_dropShadow_2421_12830"/>
<feBlend mode="normal" in="SourceGraphic" in2="effect1_dropShadow_2421_12830" result="shape"/>
</filter>
<linearGradient id="paint0_linear_2421_12830" x1="18" y1="0" x2="18" y2="36" gradientUnits="userSpaceOnUse">
<stop stop-color="#40A9FF"/>
<stop offset="1" stop-color="#1890FF"/>
</linearGradient>
<linearGradient id="paint1_linear_2421_12830" x1="18.0001" y1="13.8552" x2="18.0001" y2="22.1448" gradientUnits="userSpaceOnUse">
<stop stop-color="#65BAFF"/>
<stop offset="1" stop-color="#1890FF"/>
</linearGradient>
</defs>
</svg>
