<svg width="133" height="36" viewBox="0 0 133 36" fill="none" xmlns="http://www.w3.org/2000/svg">
<g clip-path="url(#clip0_2410_11813)">
<path d="M18 36C27.9411 36 36 27.9411 36 18C36 8.05887 27.9411 0 18 0C8.05887 0 0 8.05887 0 18C0 27.9411 8.05887 36 18 36Z" fill="#828282"/>
<path d="M18 36C27.9411 36 36 27.9411 36 18C36 8.05887 27.9411 0 18 0C8.05887 0 0 8.05887 0 18C0 27.9411 8.05887 36 18 36Z" fill="url(#paint0_linear_2410_11813)"/>
<g filter="url(#filter0_d_2410_11813)">
<path d="M24.7269 18C24.7269 21.7156 21.7158 24.7268 18.0002 24.7268C14.2846 24.7268 11.2734 21.7156 11.2734 18C11.2734 14.2844 14.2858 11.2733 18.0002 11.2733C21.7146 11.2733 24.7269 14.2856 24.7269 18Z" fill="white"/>
</g>
<path fill-rule="evenodd" clip-rule="evenodd" d="M16.7889 3.70609C16.7889 3.46649 16.9832 3.27338 17.2217 3.27338H18.9954C19.235 3.27338 19.4281 3.46768 19.4281 3.70609V5.47987C19.4281 5.71947 19.2338 5.91258 18.9954 5.91258H18.6164V15.5563C18.6164 16.0069 19.1611 16.2334 19.4806 15.9151L24.2405 11.1552V9.66993C24.2405 9.43033 24.4348 9.23722 24.6732 9.23722H26.4469C26.6866 9.23722 26.8797 9.43152 26.8797 9.66993V11.4437C26.8797 11.6833 26.6854 11.8764 26.4469 11.8764H24.9509L20.1958 16.6315C19.8775 16.9498 20.1028 17.4958 20.5546 17.4958H30.0899V17.1155C30.0899 16.8759 30.2842 16.6828 30.5226 16.6828H32.2964C32.536 16.6828 32.7291 16.8771 32.7291 17.1155V18.8893C32.7291 19.1289 32.5348 19.322 32.2964 19.322H30.5226C30.283 19.322 30.0899 19.1277 30.0899 18.8893V18.509H20.5546C20.104 18.509 19.8775 19.0538 20.1958 19.3732L24.908 24.0854H26.4458C26.6854 24.0854 26.8785 24.2797 26.8785 24.5181V26.2919C26.8785 26.5315 26.6842 26.7246 26.4458 26.7246H24.672C24.4324 26.7246 24.2393 26.5303 24.2393 26.2919V24.8483L19.4794 20.0885C19.1611 19.7702 18.6152 19.9955 18.6152 20.4473V30.0838H18.9942C19.2338 30.0838 19.4269 30.2781 19.4269 30.5166V32.2903C19.4269 32.5299 19.2326 32.723 18.9942 32.723H17.2205C16.9809 32.723 16.7877 32.5287 16.7877 32.2903V30.5166C16.7877 30.277 16.982 30.0838 17.2205 30.0838H17.6019V20.4473C17.6019 19.9967 17.0571 19.7702 16.7377 20.0885L11.9754 24.8507V26.2919C11.9754 26.5315 11.7811 26.7246 11.5427 26.7246H9.76893C9.52933 26.7246 9.33622 26.5303 9.33622 26.2919V24.5181C9.33622 24.2785 9.53052 24.0854 9.76893 24.0854H11.3091L16.0213 19.3732C16.3395 19.055 16.1142 18.509 15.6624 18.509H5.91264V18.8893C5.91264 19.1289 5.71834 19.322 5.47993 19.322H3.70615C3.46655 19.322 3.27344 19.1277 3.27344 18.8893V17.1155C3.27344 16.8759 3.46774 16.6828 3.70615 16.6828H5.47993C5.71953 16.6828 5.91264 16.8771 5.91264 17.1155V17.4958H15.6648C16.1154 17.4958 16.3419 16.951 16.0236 16.6315L11.2685 11.8764H9.77013C9.53052 11.8764 9.33741 11.6821 9.33741 11.4437V9.66993C9.33741 9.43033 9.53172 9.23722 9.77013 9.23722H11.5439C11.7835 9.23722 11.9766 9.43152 11.9766 9.66993V11.1528L16.7389 15.9151C17.0571 16.2334 17.6031 16.0081 17.6031 15.5563V5.91139H17.2217C16.982 5.91139 16.7889 5.71709 16.7889 5.47867V3.7049V3.70609Z" fill="white"/>
<path d="M21.2553 17.8283C20.4424 17.584 19.7128 17.2061 19.1836 16.5207C18.7794 15.9973 18.5041 15.4121 18.3408 14.7743C18.274 14.5144 18.2144 14.2522 18.15 13.9923C18.131 13.9148 18.0892 13.854 17.9963 13.8564C17.9092 13.8576 17.8747 13.9148 17.852 13.9864C17.8449 14.0102 17.8425 14.0352 17.8365 14.0591C17.709 14.6432 17.5492 15.2177 17.2858 15.7601C16.8841 16.591 16.2773 17.2121 15.4202 17.5864C15.1759 17.6936 14.9232 17.7771 14.6704 17.8581C14.5977 17.8808 14.556 17.9261 14.5524 17.9952C14.5489 18.062 14.5989 18.1037 14.6561 18.1299C14.6919 18.1466 14.7324 18.1538 14.7706 18.1657C15.2343 18.3087 15.6765 18.4935 16.0759 18.7724C16.8364 19.3053 17.2775 20.0563 17.5624 20.9134C17.6768 21.2591 17.7698 21.6095 17.8377 21.9671C17.8556 22.0601 17.8902 22.1412 18.0106 22.146C18.1107 22.134 18.1453 22.0577 18.162 21.9707C18.2239 21.6429 18.3062 21.3199 18.4087 21.0016C18.6138 20.365 18.8975 19.769 19.3588 19.2695C19.8773 18.7069 20.5318 18.3755 21.2589 18.1633C21.3471 18.1371 21.4485 18.1132 21.4496 18.0024C21.452 17.8844 21.3519 17.8593 21.2565 17.8295L21.2553 17.8283Z" fill="#C0C0C0"/>
<path d="M21.2553 17.8283C20.4424 17.584 19.7128 17.2061 19.1836 16.5207C18.7794 15.9973 18.5041 15.4121 18.3408 14.7743C18.274 14.5144 18.2144 14.2522 18.15 13.9923C18.131 13.9148 18.0892 13.854 17.9963 13.8564C17.9092 13.8576 17.8747 13.9148 17.852 13.9864C17.8449 14.0102 17.8425 14.0352 17.8365 14.0591C17.709 14.6432 17.5492 15.2177 17.2858 15.7601C16.8841 16.591 16.2773 17.2121 15.4202 17.5864C15.1759 17.6936 14.9232 17.7771 14.6704 17.8581C14.5977 17.8808 14.556 17.9261 14.5524 17.9952C14.5489 18.062 14.5989 18.1037 14.6561 18.1299C14.6919 18.1466 14.7324 18.1538 14.7706 18.1657C15.2343 18.3087 15.6765 18.4935 16.0759 18.7724C16.8364 19.3053 17.2775 20.0563 17.5624 20.9134C17.6768 21.2591 17.7698 21.6095 17.8377 21.9671C17.8556 22.0601 17.8902 22.1412 18.0106 22.146C18.1107 22.134 18.1453 22.0577 18.162 21.9707C18.2239 21.6429 18.3062 21.3199 18.4087 21.0016C18.6138 20.365 18.8975 19.769 19.3588 19.2695C19.8773 18.7069 20.5318 18.3755 21.2589 18.1633C21.3471 18.1371 21.4485 18.1132 21.4496 18.0024C21.452 17.8844 21.3519 17.8593 21.2565 17.8295L21.2553 17.8283Z" fill="url(#paint1_linear_2410_11813)"/>
<path d="M46.4902 19.372V6.10687H50.2893L52.1704 12.7669C52.3063 13.2616 52.4433 13.8123 52.5804 14.4179C52.7294 15.0115 52.8415 15.4812 52.9154 15.8281L53.0084 16.3478H53.0453C53.2814 15.0735 53.5543 13.8803 53.8643 12.7669L55.7453 6.10687H59.5992V19.372H57.0852V11.7655L57.1973 9.02025H57.1603C56.9612 10.0597 56.7693 10.9001 56.5833 11.5438L54.2934 19.3732H51.7055L49.4716 11.5438L48.8946 9.02025H48.8576C48.9316 10.1336 48.9697 11.0491 48.9697 11.7655V19.372H46.4938H46.4902Z" fill="#0050B3"/>
<path d="M67.4654 19.3721C67.3414 19.2111 67.2412 18.8583 67.1673 18.3147H67.1304C66.8574 18.7224 66.5093 19.0383 66.0873 19.2612C65.6654 19.4841 65.0753 19.595 64.3183 19.595C63.3134 19.595 62.5064 19.3411 61.8973 18.8344C61.2893 18.3278 60.9854 17.6102 60.9854 16.6828C60.9854 15.7554 61.3203 15.0127 61.9903 14.5681C62.6602 14.1103 63.6043 13.7956 64.8202 13.6216C65.7142 13.4976 66.3222 13.3737 66.6452 13.2509C66.9683 13.115 67.1292 12.8801 67.1292 12.5464C67.1292 12.2126 66.9933 11.9277 66.7191 11.7298C66.4461 11.52 66.0492 11.4139 65.5271 11.4139C64.3732 11.4139 63.7581 11.8597 63.6842 12.7502H61.4312C61.4681 11.8478 61.8341 11.0992 62.5303 10.5056C63.2252 9.91193 64.2313 9.61511 65.5473 9.61511C68.2283 9.61511 69.5693 10.7845 69.5693 13.1221V17.9643C69.5693 18.6819 69.6814 19.1205 69.9043 19.2815V19.3744H67.4654V19.3721ZM64.9334 17.8319C65.6284 17.8319 66.1744 17.6531 66.5725 17.2943C66.9826 16.9355 67.1876 16.5088 67.1876 16.0141V14.586C66.9146 14.7469 66.3246 14.9317 65.4186 15.1427C64.6986 15.3036 64.1896 15.4884 63.8916 15.6994C63.5936 15.8972 63.4446 16.206 63.4446 16.6268C63.4446 17.4302 63.9416 17.8331 64.9346 17.8331L64.9334 17.8319Z" fill="#0050B3"/>
<path d="M71.1797 19.372V9.85469H73.7116V19.372H71.1797ZM71.1797 8.37058V6.10687H73.7116V8.37058H71.1797Z" fill="#0050B3"/>
<path d="M77.8194 9.85472V11.1529H77.8754C78.5334 10.1134 79.4763 9.59485 80.7053 9.59485C81.6864 9.59485 82.4803 9.92862 83.0883 10.5962C83.6962 11.2518 84.0002 12.1053 84.0002 13.1567V19.3721H81.4682V13.5274C81.4682 13.0077 81.3192 12.5869 81.0212 12.2662C80.7351 11.9444 80.3322 11.7835 79.8113 11.7835C79.2522 11.7835 78.7873 11.9873 78.4142 12.3962C78.0542 12.8039 77.8742 13.3296 77.8742 13.9733V19.3721H75.3423V9.85472H77.8182H77.8194Z" fill="#0050B3"/>
<path d="M84.9136 11.5987V9.85472H86.2165V9.00121C86.2165 7.88783 86.6015 7.09631 87.3704 6.62664C88.1405 6.15697 89.1704 5.99008 90.4614 6.12597V8.07379C89.8284 8.04876 89.3814 8.10478 89.1203 8.24068C88.8724 8.37657 88.7484 8.67935 88.7484 9.15021V9.85472H90.4614V11.5987H88.7484V19.3721H86.2165V11.5987H84.9136Z" fill="#0050B3"/>
<path d="M94.0576 9.8547V11.3758H94.1136C94.4116 10.8191 94.7406 10.4114 95.1006 10.1515C95.4606 9.87973 95.9136 9.74384 96.4596 9.74384C96.7206 9.74384 96.9185 9.76887 97.0556 9.81774V12.0254H96.9996C96.1437 11.9384 95.4547 12.1244 94.9326 12.5821C94.4116 13.0399 94.1506 13.7575 94.1506 14.7338V19.372H91.6187V9.8547H94.0576Z" fill="#0050B3"/>
<path d="M103.889 19.3721C103.765 19.2111 103.665 18.8583 103.591 18.3147H103.554C103.281 18.7224 102.933 19.0383 102.511 19.2612C102.089 19.4841 101.499 19.595 100.742 19.595C99.7368 19.595 98.9297 19.3411 98.3206 18.8344C97.7127 18.3278 97.4087 17.6102 97.4087 16.6828C97.4087 15.7554 97.7437 15.0127 98.4136 14.5681C99.0835 14.1103 100.028 13.7956 101.244 13.6216C102.138 13.4976 102.746 13.3737 103.069 13.2509C103.392 13.115 103.553 12.8801 103.553 12.5464C103.553 12.2126 103.415 11.9277 103.142 11.7298C102.869 11.52 102.473 11.4139 101.95 11.4139C100.797 11.4139 100.181 11.8597 100.107 12.7502H97.8545C97.8915 11.8478 98.2574 11.0992 98.9536 10.5056C99.6497 9.91193 100.655 9.61511 101.969 9.61511C104.65 9.61511 105.991 10.7845 105.991 13.1221V17.9643C105.991 18.6819 106.104 19.1205 106.326 19.2815V19.3744H103.887L103.889 19.3721ZM101.356 17.8319C102.051 17.8319 102.597 17.6531 102.995 17.2943C103.405 16.9355 103.61 16.5088 103.61 16.0141V14.586C103.337 14.7469 102.747 14.9317 101.841 15.1427C101.121 15.3036 100.612 15.4884 100.314 15.6994C100.016 15.8972 99.8667 16.206 99.8667 16.6268C99.8667 17.4302 100.364 17.8331 101.357 17.8331L101.356 17.8319Z" fill="#0050B3"/>
<path d="M107.602 19.3721V9.85472H110.041V11.135H110.097C110.705 10.1086 111.63 9.59485 112.872 9.59485C113.468 9.59485 113.995 9.74982 114.455 10.0586C114.927 10.3554 115.28 10.7571 115.516 11.2649H115.553C116.248 10.1515 117.204 9.59485 118.42 9.59485C119.413 9.59485 120.183 9.89763 120.729 10.5044C121.288 11.098 121.567 11.9205 121.567 12.9719V19.3721H119.034V13.3975C119.034 12.3092 118.544 11.7644 117.563 11.7644C117.029 11.7644 116.607 11.9563 116.297 12.339C115.999 12.7097 115.85 13.2103 115.85 13.8421V19.3709H113.318V13.3963C113.318 12.308 112.828 11.7632 111.847 11.7632C111.338 11.7632 110.922 11.9551 110.599 12.3378C110.289 12.7085 110.134 13.2092 110.134 13.8409V19.3697H107.602V19.3721Z" fill="#0050B3"/>
<path d="M127.619 19.6498C126.08 19.6498 124.87 19.1801 123.988 18.2396C123.107 17.2871 122.666 16.0748 122.666 14.6026C122.666 13.1304 123.107 11.9932 123.988 11.0408C124.87 10.0764 125.999 9.59363 127.377 9.59363C128.879 9.59363 130.04 10.1134 130.859 11.1516C131.679 12.1911 132.088 13.5822 132.088 15.3262H125.161C125.261 16.0808 125.515 16.6685 125.925 17.0893C126.334 17.4969 126.893 17.702 127.601 17.702C128.532 17.702 129.146 17.3122 129.444 16.5338H131.939C131.753 17.4242 131.281 18.1669 130.524 18.7605C129.767 19.3542 128.799 19.651 127.619 19.651V19.6498ZM127.414 11.5426C126.185 11.5426 125.447 12.2233 125.199 13.5834H129.444C129.407 12.9779 129.202 12.4891 128.83 12.1172C128.457 11.7334 127.985 11.5426 127.414 11.5426Z" fill="#0050B3"/>
<path d="M48.8597 29.9205C48.1529 29.9205 47.6045 29.7727 47.2135 29.4759C46.8237 29.1743 46.6187 28.7476 46.5996 28.1933H47.6379C47.6725 28.5044 47.7821 28.7273 47.9669 28.8632C48.1576 28.9991 48.4401 29.067 48.8156 29.067C49.1136 29.067 49.3568 29.0134 49.5476 28.9061C49.7383 28.7941 49.8325 28.6248 49.8325 28.3959C49.8325 28.3137 49.8205 28.2409 49.7955 28.1778C49.7764 28.1098 49.7323 28.0514 49.6644 28.0025C49.5964 27.9489 49.538 27.9084 49.4891 27.8786C49.4403 27.844 49.3497 27.8106 49.2185 27.776C49.0874 27.7367 48.9873 27.7105 48.9182 27.6962C48.8502 27.6771 48.7227 27.6449 48.5379 27.602C48.3138 27.5484 48.1278 27.5019 47.9824 27.4637C47.8405 27.4244 47.682 27.3636 47.5068 27.2813C47.3363 27.1991 47.1992 27.1085 47.0967 27.0119C46.9989 26.9094 46.9167 26.7783 46.8476 26.6186C46.7796 26.4529 46.745 26.2669 46.745 26.0571C46.745 25.5564 46.9274 25.1726 47.2934 24.9056C47.6641 24.6338 48.1493 24.4979 48.7489 24.4979C49.3485 24.4979 49.8193 24.6386 50.1746 24.9199C50.531 25.2012 50.7277 25.6029 50.767 26.1227H49.7502C49.7216 25.8699 49.6143 25.6756 49.4283 25.5397C49.2483 25.4039 49.0183 25.3359 48.7405 25.3359C48.4628 25.3359 48.2232 25.3919 48.0527 25.504C47.8823 25.616 47.7964 25.7639 47.7964 25.9486C47.7964 26.1477 47.8799 26.2931 48.0456 26.3861C48.216 26.4779 48.514 26.5709 48.9384 26.6627C49.1923 26.7163 49.3997 26.7676 49.5607 26.8152C49.7216 26.8594 49.8944 26.9249 50.0804 27.0119C50.2711 27.0942 50.4166 27.1872 50.5191 27.2885C50.6264 27.391 50.7146 27.5269 50.7825 27.6962C50.8552 27.8619 50.8922 28.0538 50.8922 28.2719C50.8922 28.7869 50.7038 29.1898 50.3295 29.4819C49.954 29.7727 49.4641 29.9194 48.8597 29.9194V29.9205Z" fill="#1890FF"/>
<path d="M56.3745 25.4825V24.5932H60.5801V25.4825H59.0078V29.8037H57.9468V25.4825H56.3745Z" fill="#1890FF"/>
<path d="M68.4741 29.8919C67.8018 29.8919 67.2892 29.7417 66.9375 29.4401C66.5859 29.1338 66.4106 28.6963 66.4106 28.1289V24.5944H67.4716V28.1289C67.4716 28.7416 67.7982 29.0467 68.4514 29.0467C68.7781 29.0467 69.0248 28.9621 69.1905 28.7916C69.3562 28.6212 69.4397 28.3959 69.4397 28.1134V24.5932H70.5006V28.1277C70.5006 28.6915 70.3277 29.1266 69.9808 29.4318C69.6399 29.7381 69.1369 29.8907 68.4741 29.8907V29.8919Z" fill="#1890FF"/>
<path d="M76.6025 29.8037V24.5932H78.6433C79.3359 24.5932 79.8914 24.8436 80.311 25.3442C80.7306 25.8401 80.9404 26.4767 80.9404 27.2539C80.9404 28.1527 80.6627 28.8357 80.1072 29.3018C79.7031 29.6368 79.1857 29.8049 78.5563 29.8049H76.6037L76.6025 29.8037ZM77.6635 28.893H78.4824C78.9652 28.893 79.3157 28.7547 79.5362 28.4769C79.7555 28.1956 79.8652 27.7867 79.8652 27.2527C79.8652 26.7187 79.7484 26.2931 79.5135 25.9772C79.2847 25.6565 78.9509 25.4956 78.511 25.4956H77.6623V28.8918L77.6635 28.893Z" fill="#1890FF"/>
<path d="M86.8638 29.8037V24.5932H87.9247V29.8037H86.8638Z" fill="#1890FF"/>
<path d="M98.2003 29.1624C97.7426 29.6678 97.1322 29.9205 96.3717 29.9205C95.6112 29.9205 94.9985 29.6678 94.536 29.1624C94.077 28.6522 93.8481 28.0013 93.8481 27.2098C93.8481 26.4183 94.077 25.7662 94.536 25.2572C94.9997 24.747 95.6112 24.4919 96.3717 24.4919C97.1322 24.4919 97.7414 24.747 98.2003 25.2572C98.6593 25.7674 98.8881 26.4183 98.8881 27.2098C98.8881 28.0013 98.6593 28.6522 98.2003 29.1624ZM95.3036 28.5354C95.5575 28.8799 95.9152 29.0527 96.3789 29.0527C96.8426 29.0527 97.1954 28.8822 97.4398 28.5425C97.683 28.198 97.8058 27.7534 97.8058 27.2086C97.8058 26.6638 97.6842 26.2204 97.4398 25.8747C97.1954 25.5302 96.8426 25.3573 96.3789 25.3573C95.9152 25.3573 95.5575 25.5302 95.3036 25.8747C95.0545 26.2192 94.9305 26.6638 94.9305 27.2086C94.9305 27.7534 95.0545 28.1897 95.3036 28.5354Z" fill="#1890FF"/>
</g>
<defs>
<filter id="filter0_d_2410_11813" x="-12.7266" y="-12.7267" width="61.4536" height="61.4535" filterUnits="userSpaceOnUse" color-interpolation-filters="sRGB">
<feFlood flood-opacity="0" result="BackgroundImageFix"/>
<feColorMatrix in="SourceAlpha" type="matrix" values="0 0 0 0 0 0 0 0 0 0 0 0 0 0 0 0 0 0 127 0" result="hardAlpha"/>
<feOffset/>
<feGaussianBlur stdDeviation="12"/>
<feColorMatrix type="matrix" values="0 0 0 0 1 0 0 0 0 1 0 0 0 0 1 0 0 0 0.75 0"/>
<feBlend mode="normal" in2="BackgroundImageFix" result="effect1_dropShadow_2410_11813"/>
<feBlend mode="normal" in="SourceGraphic" in2="effect1_dropShadow_2410_11813" result="shape"/>
</filter>
<linearGradient id="paint0_linear_2410_11813" x1="18" y1="0" x2="18" y2="36" gradientUnits="userSpaceOnUse">
<stop stop-color="#40A9FF"/>
<stop offset="1" stop-color="#1890FF"/>
</linearGradient>
<linearGradient id="paint1_linear_2410_11813" x1="17.9998" y1="13.8552" x2="17.9998" y2="22.1448" gradientUnits="userSpaceOnUse">
<stop stop-color="#65BAFF"/>
<stop offset="1" stop-color="#1890FF"/>
</linearGradient>
<clipPath id="clip0_2410_11813">
<rect width="132.088" height="36" fill="white"/>
</clipPath>
</defs>
</svg>
