<svg width="25" height="21" viewBox="0 0 25 21" fill="none" xmlns="http://www.w3.org/2000/svg">
<path fill-rule="evenodd" clip-rule="evenodd" d="M11.4612 9.93569V17.2105C11.4948 18.4735 12.505 20.8479 16.277 20.2417C17.4956 19.9807 19.7565 18.6453 19.0505 15.3918C18.8404 14.4909 17.81 12.6637 15.3693 12.5627V14.8866C15.8736 14.9371 16.9174 15.2756 17.0586 16.2254C17.1426 16.8653 16.872 18.13 15.1172 18.0693C14.6633 18.0272 13.7304 17.6702 13.6295 16.579V9.83465C14.3271 9.40523 16.1207 8.86467 17.7142 10.1378C17.6301 10.6261 17.7545 11.5473 18.9244 11.325C19.2102 11.1987 19.6808 10.7642 19.2774 10.0367C19.9498 9.53995 21.7282 8.82425 23.4629 9.93569C23.2359 10.222 22.9888 10.9006 23.8158 11.325C24.2781 11.4513 25.1572 11.4058 24.9757 10.2135C24.9337 10.0873 24.7588 9.80434 24.3958 9.68309C24.1184 8.33591 22.9788 5.21211 20.6389 3.49445C20.7818 3.19133 20.8759 2.47901 20.1094 2.05464C19.9245 1.96202 19.4388 1.85256 18.9748 2.15568C18.0335 1.52419 15.3542 0.271297 12.1672 0.311713C11.8814 0.0506935 11.1586 -0.289475 10.5535 0.438007C9.21716 0.656923 6.04024 1.62521 4.02315 3.74703C3.72899 3.74703 3.14572 3.9188 3.16589 4.60586C2.47671 5.4226 1.00254 7.58146 0.619296 9.68308C0.375564 9.78412 -0.0866856 10.1226 0.0141689 10.6682C0.115023 11.2138 0.610901 11.3839 0.846232 11.4007C1.12358 11.4007 1.68837 11.2542 1.72871 10.6682C1.74552 10.5251 1.73375 10.1984 1.55221 10.0367C2.275 9.45574 4.16939 8.68784 5.9646 10.2641C5.87215 10.5419 5.84862 11.1582 6.49408 11.4007C6.79665 11.4849 7.4522 11.4563 7.65391 10.6682C7.67072 10.5251 7.65391 10.1984 7.4522 10.0367C8.06573 9.56521 9.72647 8.88489 11.4612 9.93569ZM10.5283 1.29683C10.3871 1.15538 10.4358 1.01898 10.4778 0.968456C7.65391 1.37261 5.28383 3.1408 4.45178 3.97437L4.60306 4.15119H5.76289C6.00494 3.68641 6.41844 3.72177 6.59494 3.79755L10.5283 1.29683ZM9.26758 3.46917C9.32642 3.2671 9.5651 2.87304 10.0492 2.91346L10.7804 1.67573L7.47742 3.72177L9.26758 3.46917ZM11.915 1.80203C11.6528 1.96369 11.2847 1.91991 11.1334 1.87781L10.4274 3.09028C10.4879 3.11048 10.6039 3.2671 10.6543 3.34287H12.5201L12.5454 2.30722L11.915 1.80203ZM12.5201 3.89859H11.0578L12.5201 4.85846V3.89859ZM9.89792 4.37853C10.0408 4.37011 10.3669 4.31285 10.5283 4.15119L12.5454 5.54048L12.5201 6.34879L9.77186 6.47509C9.71302 6.34037 9.53485 6.05577 9.2928 5.99515L9.89792 4.37853ZM9.51972 4.22697C9.37852 4.18655 9.2928 3.99121 9.26758 3.89859L6.99836 4.27749C7.01853 4.41894 6.93953 4.57218 6.8975 4.63112L8.28425 5.99515C8.5263 5.79307 8.75491 5.82675 8.83895 5.86885L9.51972 4.22697ZM4.60306 4.5806L5.76289 4.53008V4.63112L4.98127 5.99515L4.35093 5.0858C4.46019 5.01844 4.66358 4.8231 4.60306 4.5806ZM3.87187 5.2121C3.60965 5.25251 3.47685 5.11106 3.44324 5.03528C1.86991 6.95502 1.25805 8.93371 1.1488 9.68308L2.00606 9.20314L4.35093 6.85398C4.2299 6.65191 4.40135 6.33195 4.50221 6.19723L3.87187 5.2121ZM3.0146 8.90003L4.65349 7.2834C4.69551 7.33392 4.83503 7.43496 5.05691 7.43496L6.21673 9.80938C5.80491 9.40522 4.58793 8.65753 3.0146 8.90003ZM6.56973 4.93424C6.56973 4.93424 6.1495 4.95108 6.06545 4.90898L5.43511 6.04567C5.43511 6.04567 5.78304 6.38696 5.76289 6.47509L7.88083 6.52561C7.88083 6.52561 7.92286 6.39089 7.95648 6.34879L6.56973 4.93424ZM5.56118 7.20762C5.61161 7.18236 5.7881 6.87924 5.7881 6.87924L7.88083 7.00554C7.85562 7.115 7.88083 7.38444 8.1834 7.58652L7.14964 9.70834C7.05719 9.67466 6.85716 9.62246 6.79665 9.68308L5.56118 7.20762ZM8.58682 7.81386L7.93126 9.15262C8.69776 8.70805 9.98197 8.84951 10.5283 8.97581L9.2928 7.71282C9.05075 7.9351 8.72129 7.8728 8.58682 7.81386ZM9.79707 6.9045C9.82228 7.01396 9.82228 7.26824 9.62057 7.4097L12.5201 10.1883V6.80346L9.79707 6.9045Z" fill="#1890FF"/>
<path fill-rule="evenodd" clip-rule="evenodd" d="M13.5649 7.75475H14.876L15.1786 6.87066H17.1201L17.3974 7.75475H18.7337L16.9183 2.47546H15.4055L13.5649 7.75475ZM16.7263 5.75923L16.1367 3.78897L15.5472 5.75923H16.7263Z" fill="white"/>
<path d="M20.3474 2.98065C20.3474 3.34337 20.0539 3.63741 19.6918 3.63741C19.3298 3.63741 19.0363 3.34337 19.0363 2.98065C19.0363 2.61794 19.3298 2.3239 19.6918 2.3239C20.0539 2.3239 20.3474 2.61794 20.3474 2.98065Z" fill="white"/>
<path d="M19.0363 3.99104H20.2465V7.78001H19.0363V3.99104Z" fill="white"/>
</svg>
