<svg width="20" height="20" viewBox="0 0 20 20" fill="none" xmlns="http://www.w3.org/2000/svg">
<g clip-path="url(#clip0_2445_1063)">
<path fill-rule="evenodd" clip-rule="evenodd" d="M9.16536 3.33398C9.16536 1.95328 8.04607 0.833984 6.66536 0.833984H3.33203C1.95132 0.833984 0.832031 1.95328 0.832031 3.33398V16.6673C0.832031 18.0481 1.95132 19.1673 3.33203 19.1673H6.66536C8.04607 19.1673 9.16536 18.0481 9.16536 16.6673V3.33398ZM7.4987 3.33398C7.4987 2.87375 7.1256 2.50065 6.66536 2.50065H3.33203C2.8718 2.50065 2.4987 2.87375 2.4987 3.33398V16.6673C2.4987 17.1276 2.8718 17.5007 3.33203 17.5007H6.66536C7.1256 17.5007 7.4987 17.1276 7.4987 16.6673V3.33398Z" fill="#292E30"/>
<path fill-rule="evenodd" clip-rule="evenodd" d="M19.1654 3.33398C19.1654 1.95328 18.0461 0.833984 16.6654 0.833984H13.332C11.9513 0.833984 10.832 1.95328 10.832 3.33398V16.6673C10.832 18.0481 11.9513 19.1673 13.332 19.1673H16.6654C18.0461 19.1673 19.1654 18.0481 19.1654 16.6673V3.33398ZM17.4987 3.33398C17.4987 2.87375 17.1256 2.50065 16.6654 2.50065H13.332C12.8718 2.50065 12.4987 2.87375 12.4987 3.33398V16.6673C12.4987 17.1276 12.8718 17.5007 13.332 17.5007H16.6654C17.1256 17.5007 17.4987 17.1276 17.4987 16.6673V3.33398Z" fill="#292E30"/>
</g>
<defs>
<clipPath id="clip0_2445_1063">
<rect width="20" height="20" fill="white"/>
</clipPath>
</defs>
</svg>
