<svg width="20" stroke="#002766" height="20" viewBox="0 0 20 20" fill="none" xmlns="http://www.w3.org/2000/svg">
<path d="M1.6 2.28571C1.6 1.90701 1.90701 1.6 2.28571 1.6H17.7143C18.093 1.6 18.4 1.907 18.4 2.28571V4.85714C18.4 5.23587 18.093 5.54286 17.7143 5.54286H10H2.28571C1.90701 5.54286 1.6 5.23585 1.6 4.85714V2.28571Z" stroke-width="1.2"/>
<path d="M1.6 9.99994C1.6 9.62124 1.90701 9.31423 2.28571 9.31423H10C10.3787 9.31423 10.6857 9.62122 10.6857 9.99994V17.7142C10.6857 18.093 10.3787 18.3999 10 18.3999H2.28571C1.907 18.3999 1.6 18.093 1.6 17.7142V9.99994Z"  stroke-width="1.2"/>
<path d="M14.4572 9.99994C14.4572 9.62122 14.7642 9.31423 15.1429 9.31423H17.7143C18.093 9.31423 18.4 9.62122 18.4 9.99994V17.7142C18.4 18.093 18.093 18.3999 17.7143 18.3999H15.1429C14.7641 18.3999 14.4572 18.093 14.4572 17.7142V9.99994Z" stroke-width="1.2"/>
</svg>
