<svg width="22" height="22" viewBox="0 0 22 22" fill="none" xmlns="http://www.w3.org/2000/svg">
<path fill-rule="evenodd" clip-rule="evenodd" d="M12.4137 2.82798C11.6327 2.04693 10.3663 2.04693 9.58535 2.82798L8.91376 3.49955L10.4815 5.06729C10.6467 5.02311 10.8203 4.99955 10.9995 4.99955C12.1041 4.99955 12.9995 5.89498 12.9995 6.99955C12.9995 7.17871 12.9759 7.35237 12.9318 7.51759L14.9815 9.56725C15.1467 9.52315 15.3203 9.49955 15.4995 9.49955C16.6041 9.49955 17.4995 10.3949 17.4995 11.4995C17.4995 12.6041 16.6041 13.4995 15.4995 13.4995C14.3949 13.4995 13.4995 12.6041 13.4995 11.4995C13.4995 11.3203 13.5231 11.1467 13.5672 10.9815L11.9995 9.41374V14.2671C12.5973 14.6129 12.9995 15.2592 12.9995 15.9995C12.9995 17.1041 12.1041 17.9995 10.9995 17.9995C9.89495 17.9995 8.99955 17.1041 8.99955 15.9995C8.99955 15.2592 9.40175 14.6129 9.99955 14.2671V8.73199C9.40175 8.38618 8.99955 7.73983 8.99955 6.99955C8.99955 6.82039 9.02315 6.64673 9.06725 6.48151L7.49955 4.91376L2.82798 9.58535C2.04693 10.3663 2.04693 11.6327 2.82798 12.4137L9.58535 19.1711C10.3663 19.9521 11.6327 19.9521 12.4137 19.1711L19.1711 12.4137C19.9521 11.6327 19.9521 10.3663 19.1711 9.58535L12.4137 2.82798ZM8.17112 1.41376C9.73324 -0.148339 12.2658 -0.148335 13.8279 1.41377L20.5853 8.17112C22.1474 9.73324 22.1474 12.2658 20.5853 13.8279L13.8279 20.5853C12.2658 22.1474 9.73324 22.1474 8.17112 20.5853L1.41376 13.8279C-0.148339 12.2658 -0.148335 9.73324 1.41377 8.17112L8.17112 1.41376Z" fill="white"/>
</svg>
