<svg width="17" height="20" viewBox="0 0 17 20" fill="none" xmlns="http://www.w3.org/2000/svg">
<path fill-rule="evenodd" clip-rule="evenodd" d="M1.57 15.5866C1.32144 15.4396 1.11523 15.2307 0.971512 14.9802C0.827793 14.7298 0.751472 14.4463 0.75 14.1576V10.9046C0.75 10.5176 1.072 10.2046 1.466 10.2066C1.592 10.2066 1.716 10.2396 1.826 10.3016L9.329 14.5826C9.768 14.8326 10.039 15.2926 10.039 15.7896V19.1596C10.0383 19.271 10.0157 19.3811 9.9723 19.4837C9.92891 19.5863 9.86567 19.6793 9.78621 19.7574C9.70675 19.8355 9.61264 19.897 9.50928 19.9386C9.40593 19.9802 9.29539 20.0009 9.184 19.9996C9.02569 19.9996 8.87026 19.9572 8.734 19.8766L1.57 15.5866ZM12.754 9.41056C13.194 9.66056 13.462 10.1216 13.464 10.6176V17.4576C13.464 17.6596 13.354 17.8466 13.173 17.9446L11.531 18.8486C11.5099 18.8603 11.4874 18.8694 11.464 18.8756V15.0776C11.464 14.5856 11.201 14.1296 10.768 13.8776L4.18 10.0196V5.73256C4.18 5.34556 4.502 5.03256 4.897 5.03456C5.02286 5.03475 5.14652 5.06747 5.256 5.12956L12.756 9.41056H12.754ZM16.039 4.35856C16.479 4.60856 16.75 5.06856 16.75 5.56756V15.5576C16.7487 15.6591 16.7201 15.7584 16.6671 15.8449C16.6142 15.9315 16.5388 16.0022 16.449 16.0496L14.892 16.8726V9.91656C14.892 9.42556 14.628 8.97056 14.199 8.71756L7.463 4.76456V0.699557C7.463 0.575557 7.498 0.454557 7.559 0.347557C7.65707 0.186723 7.81389 0.0703756 7.99625 0.0231523C8.17861 -0.024071 8.37219 0.00153808 8.536 0.0945568L16.039 4.35856Z" fill="white"/>
</svg>
