<svg width="20" height="20" viewBox="0 0 20 20" fill="none" xmlns="http://www.w3.org/2000/svg">
<g clip-path="url(#clip0_1359_3675)">
<path d="M3.69362 9.99967L0.299335 1.2715C0.0630953 0.664027 0.655438 0.0830911 1.2414 0.289586L1.33375 0.328845L19.3337 9.32885C19.852 9.58796 19.8844 10.2975 19.4309 10.6129L19.3337 10.6705L1.33375 19.6705C0.750768 19.962 0.117464 19.426 0.268798 18.8234L0.299335 18.7278L3.69362 9.99967L0.299335 1.2715L3.69362 9.99967ZM2.4021 2.54007L5.01109 9.24907L11.6387 9.24967C12.0184 9.24967 12.3322 9.53182 12.3818 9.89789L12.3887 9.99967C12.3887 10.3794 12.1065 10.6932 11.7404 10.7428L11.6387 10.7497L5.01109 10.7491L2.4021 17.4593L17.3213 9.99967L2.4021 2.54007Z" fill="currentColor"/>
</g>
<defs>
<clipPath id="clip0_1359_3675">
<rect width="20" height="20" fill="currentColor"/>
</clipPath>
</defs>
</svg>