<svg width="20" height="20" viewBox="0 0 20 20" fill="none" xmlns="http://www.w3.org/2000/svg">
<path fill-rule="evenodd" clip-rule="evenodd" d="M9.99992 6.66667C9.11586 6.66667 8.26802 7.01786 7.6429 7.64298C7.01777 8.2681 6.66658 9.11595 6.66658 10C6.66658 10.8841 7.01777 11.7319 7.6429 12.357C8.26802 12.9821 9.11586 13.3333 9.99992 13.3333C10.884 13.3333 11.7318 12.9821 12.3569 12.357C12.9821 11.7319 13.3333 10.8841 13.3333 10C13.3333 9.11595 12.9821 8.2681 12.3569 7.64298C11.7318 7.01786 10.884 6.66667 9.99992 6.66667ZM8.82141 8.82149C9.13397 8.50893 9.55789 8.33333 9.99992 8.33333C10.4419 8.33333 10.8659 8.50893 11.1784 8.82149C11.491 9.13405 11.6666 9.55797 11.6666 10C11.6666 10.442 11.491 10.866 11.1784 11.1785C10.8659 11.4911 10.4419 11.6667 9.99992 11.6667C9.55789 11.6667 9.13397 11.4911 8.82141 11.1785C8.50885 10.866 8.33325 10.442 8.33325 10C8.33325 9.55797 8.50885 9.13405 8.82141 8.82149Z" fill="#002766"/>
<path fill-rule="evenodd" clip-rule="evenodd" d="M9.15075 0.833336C8.77221 0.833336 8.44123 1.08847 8.34487 1.45454L7.92257 3.05887L6.58087 3.62447L5.55383 2.71074C5.22407 2.41736 4.72276 2.43198 4.41066 2.74408L2.744 4.41075C2.44208 4.71266 2.4172 5.19394 2.68639 5.52537L3.5865 6.63363L3.03453 7.99157L1.47713 8.35516C1.10002 8.4432 0.833252 8.77942 0.833252 9.16667V10.8333C0.833252 11.2091 1.08474 11.5384 1.44726 11.6373L3.057 12.0764L3.62412 13.4218L2.7113 14.4454C2.41729 14.7751 2.43163 15.2769 2.744 15.5893L4.41066 17.2559C4.71299 17.5582 5.19506 17.5827 5.52646 17.3126L6.63432 16.4095L7.95888 16.9543L8.35861 18.5374C8.45205 18.9074 8.78493 19.1667 9.16658 19.1667H10.8333C11.2148 19.1667 11.5475 18.9076 11.6411 18.5378L12.0419 16.954L13.4107 16.3871C13.5485 16.5026 13.7065 16.6382 13.8637 16.7751C14.0199 16.9112 14.1651 17.0394 14.2714 17.1336C14.3244 17.1807 14.3677 17.2192 14.3975 17.2459L14.4428 17.2864C14.7723 17.582 15.2761 17.569 15.5892 17.2559L17.2558 15.5893C17.5625 15.2825 17.5827 14.7919 17.3022 14.461L16.3944 13.3906L16.9561 12.0339L18.5428 11.6215C18.9102 11.5261 19.1666 11.1945 19.1666 10.815V9.16667C19.1666 8.78557 18.9081 8.45303 18.5387 8.35906L16.9618 7.95787L16.4015 6.60445L17.303 5.53796C17.5827 5.20709 17.5622 4.7171 17.2558 4.41075L15.5892 2.74408C15.2816 2.43648 14.7891 2.41723 14.4585 2.69987L13.3998 3.60473L11.9988 3.02866L11.585 1.45481C11.4888 1.08861 11.1577 0.833336 10.7791 0.833336H9.15075ZM15.5346 14.9535L14.9644 15.5236L14.9582 15.5182C14.6504 15.2502 14.254 14.9111 14.0304 14.7513C13.7964 14.584 13.4926 14.5492 13.2269 14.6593L11.0177 15.5743C10.7746 15.675 10.5933 15.8846 10.5287 16.1397L10.1845 17.5H9.81565L9.47206 16.1393C9.40742 15.8833 9.22528 15.6731 8.98111 15.5727L6.80944 14.6793C6.52666 14.563 6.20288 14.6109 5.96588 14.8041L5.05687 15.5451L4.47901 14.9673L5.21854 14.138C5.43263 13.8979 5.48943 13.556 5.36448 13.2596L4.43531 11.0555C4.3359 10.8196 4.13364 10.6426 3.88674 10.5752L2.49992 10.1969V9.82786L3.83354 9.51651C4.097 9.45501 4.31421 9.26943 4.41608 9.0188L5.31608 6.80463C5.43055 6.52302 5.38259 6.20143 5.19095 5.96546L4.45385 5.05792L5.03332 4.47845L5.86601 5.21927C6.10607 5.43284 6.44754 5.48938 6.74362 5.36456L8.94779 4.4354C9.18602 4.33497 9.36416 4.12965 9.42997 3.87963L9.79312 2.5H10.1365L10.4923 3.85353C10.5587 4.10618 10.7398 4.31306 10.9814 4.4124L13.2372 5.3399C13.5264 5.45881 13.8578 5.4058 14.0955 5.20263L14.9556 4.46751L15.5354 5.04734L14.801 5.91621C14.5997 6.15431 14.5482 6.48484 14.6674 6.77291L15.5816 8.98124C15.6822 9.2241 15.8914 9.4053 16.1461 9.47011L17.4999 9.81454V10.1705L16.1353 10.5251C15.8824 10.5908 15.6749 10.7714 15.575 11.0129L14.66 13.2229C14.5405 13.5114 14.5924 13.8425 14.7943 14.0806L15.5346 14.9535Z" fill="#002766"/>
</svg>
