<svg width="20" height="24" viewBox="0 0 20 24" fill="none" xmlns="http://www.w3.org/2000/svg">
<path fill-rule="evenodd" clip-rule="evenodd" d="M1.46254 5.50731V12.5788C1.46254 17.8588 6.13972 20.3972 9.89642 22.4372L9.99667 22.4908L10.0983 22.4372C13.855 20.3972 18.5322 17.8588 18.5322 12.5788V5.50731L9.99668 1.4866L1.46253 5.50731H1.46254ZM9.99667 24.0014C9.88089 24.0014 9.76513 23.9718 9.65926 23.9153L9.22301 23.6781C5.35197 21.576 0.0507812 18.6988 0.0507812 12.5788V5.05976C0.0507812 4.78589 0.208906 4.53741 0.455956 4.42024L9.69737 0.0677625C9.88654 -0.0225875 10.1082 -0.0225875 10.2974 0.0677625L19.5388 4.42026C19.7858 4.53744 19.944 4.78591 19.944 5.05979V12.5788C19.944 18.6989 14.6414 21.576 10.7717 23.6781L10.3355 23.9153C10.2296 23.9718 10.1138 24.0014 9.99667 24.0014ZM15.8361 17.1558H11.9185L10.7736 16.0123V14.9647H9.31379V13.505H8.26767L7.53638 12.7737C7.51238 12.7751 7.48838 12.7751 7.46438 12.7751C5.26344 12.7751 3.47332 10.9849 3.47332 8.78401C3.47332 6.58307 5.26344 4.79154 7.46438 4.79154C9.66532 4.79154 11.4554 6.58307 11.4554 8.78401C11.4554 8.80801 11.4554 8.83201 11.454 8.8546L15.8362 13.2381L15.8361 17.1558ZM12.503 15.744H14.4244V13.8226L9.98155 9.37695L10.031 8.91107C10.0437 7.36236 8.88603 6.20331 7.46438 6.20331C6.04273 6.20331 4.88508 7.36236 4.88508 8.78401C4.88508 10.2071 6.04273 11.3633 7.46438 11.3633L8.05451 11.297L8.85214 12.0932H10.7256V13.5529H12.1853V15.4278L12.503 15.744ZM8.58547 8.82439C8.58547 9.40886 8.1111 9.88321 7.52664 9.88321C6.94217 9.88321 6.46782 9.40886 6.46782 8.82439C6.46782 8.23991 6.94217 7.76556 7.52664 7.76556C8.1111 7.76556 8.58547 8.23991 8.58547 8.82439Z" fill="white"/>
</svg>
