

<svg width="20" height="20" viewBox="0 0 20 20"  fill="#002766" xmlns="http://www.w3.org/2000/svg">
<path d="M10 0L18.75 5V15L10 20L1.25 15V5L10 0ZM10 1.91875L2.9125 5.96875V14.0312L10 18.0812L17.0875 14.0312V5.96875L10 1.91875ZM14.375 5.83375L15.6375 6.5625V8.02125L14.375 8.75L13.7738 8.4025L10.7275 9.9275V13.545L11.2625 13.8538V15.3125L10 16.0413L8.7375 15.3125V13.8538L9.2725 13.545V9.92875L6.225 8.4025L5.625 8.75L4.3625 8.02125V6.5625L5.625 5.83375L6.8875 6.5625V7.10375L10 8.6625L13.1125 7.1025V6.5625L14.375 5.83375Z"/>
</svg>
